<svg id="catch_main.svg" xmlns="http://www.w3.org/2000/svg" width="2000" height="982" viewBox="0 0 2000 982">
  <defs>
    <style>
      .cls-1, .cls-2 {
        fill: #fff;
      }

      .cls-1 {
        fill-opacity: 0;
      }

      .cls-2 {
        fill-rule: evenodd;
      }
    </style>
  </defs>
  <rect id="長方形_2" data-name="長方形 2" class="cls-1" x="-1" width="2001" height="982"/>
  <path id="シェイプ_2" data-name="シェイプ 2" class="cls-2" d="M503.092,854.56a2.528,2.528,0,1,1-2.479,2.514,2.5,2.5,0,0,1,2.479-2.514m0-1.385a3.913,3.913,0,1,0,3.872,3.9,3.885,3.885,0,0,0-3.872-3.9m-13.565-35.708a0.361,0.361,0,0,0-.417.424v0.565c0,1.13-.056,2.288-0.084,3.418a1.653,1.653,0,0,1-.139.82c-0.307.593-3.287,1.045-4.011,1.1-0.5.057-1.114,0.029-1.114,0.509a10.444,10.444,0,0,0,.668,2.062,0.823,0.823,0,0,0,.585.65,13.118,13.118,0,0,0,1.922-.537,14.881,14.881,0,0,1,1.643-.48c0.251,0,.251.254,0.251,0.424a3.253,3.253,0,0,1-.139.9,38.019,38.019,0,0,1-4.262,7.373,2.346,2.346,0,0,0-.473.847,3.668,3.668,0,0,0,1.977,1.865,0.6,0.6,0,0,0,.5-0.424c0.195-.4,1.532-2.938,1.866-2.938a0.236,0.236,0,0,1,.167.283c0,0.565-.139,3.672-0.195,4.181a2.446,2.446,0,0,0-.028.452c0,0.649.78,0.593,1.226,0.593,1.755,0,2-.028,2-0.706,0-.029-0.167-3.108-0.167-4.972v-1.526c0-1.723.056-1.836,0.613-2.373,1.922-1.921,5.125-5.254,7.966-5.254,2.4,0,2.563,4.039,2.563,5.791,0,0.9-.028,1.7-0.641,1.7h-0.139a13.627,13.627,0,0,0-2.368-.311c-2.033,0-5.181,1.215-5.181,3.673,0,2.429,2.674,3.616,4.736,3.616a5.446,5.446,0,0,0,4.735-2.43,0.706,0.706,0,0,1,.585-0.424,1.568,1.568,0,0,1,.752.368,3.654,3.654,0,0,0,1.309.734c0.668,0,1.448-1.412,1.448-1.977,0-.65-1.2-1.272-2.089-1.78a0.9,0.9,0,0,1-.613-0.819c0-.113.028-0.2,0.028-0.311,0.084-.819.167-1.752,0.167-2.571a12.807,12.807,0,0,0-1.114-5.706A4.577,4.577,0,0,0,500,821.959a7.838,7.838,0,0,0-4.986,2.062,28.644,28.644,0,0,0-3.036,2.8,0.619,0.619,0,0,1-.362.226c-0.112,0-.112-0.113-0.112-0.2a1.62,1.62,0,0,1,.223-0.706,11.6,11.6,0,0,1,1.225-2.119,1.347,1.347,0,0,0,.39-0.734,1.439,1.439,0,0,0-.863-1.074,0.833,0.833,0,0,1-.669-0.734c0-.085.112-1.13,0.112-1.3,0.111-1.017.111-1.13,0.446-1.412a0.466,0.466,0,0,0,.222-0.339,0.445,0.445,0,0,0-.39-0.367,15.647,15.647,0,0,0-2.674-.594m9.777,16.922c0.418,0,2.145.141,2.145,0.735a2.656,2.656,0,0,1-2.618,1.61c-0.7,0-2.117-.254-2.117-1.187,0-.96,1.894-1.158,2.59-1.158m-5.543-54.1a0.318,0.318,0,0,0-.362.339,0.625,0.625,0,0,0,.028.226,24.444,24.444,0,0,1,.279,3.5,0.829,0.829,0,0,1-.613.876c-0.251.057-6.8,0.424-7.549,0.452-1.365.057-1.615,0-1.615,0.565a16.73,16.73,0,0,0,.223,2.034c0.083,0.367.111,0.763,0.557,0.763a2.08,2.08,0,0,0,.418-0.057c1.337-.282,4.93-0.678,6.378-0.819,0.334-.028,1.616-0.169,1.838-0.169,0.307,0,.5.141,0.5,1.186a0.361,0.361,0,0,1-.334.339c-2.814.254-3.928,2.74-3.928,5.339,0,2.063.891,4.718,3.315,4.718a2.628,2.628,0,0,0,.64-0.141,0.614,0.614,0,0,1,.223-0.028,0.21,0.21,0,0,1,.195.2,1.078,1.078,0,0,1-.139.424,9.094,9.094,0,0,1-2.006,2.74,2.118,2.118,0,0,0-.64.791c0,0.509,2.256,1.215,2.59,1.215,1.226,0,4.206-5.057,4.206-9.605a8.8,8.8,0,0,0-.863-3.955,2.416,2.416,0,0,1-.279-1.469v-0.989a0.911,0.911,0,0,1,.529-0.932c0.307-.085,2.9-0.113,3.4-0.113,1.559,0,3.649.141,4.038,0.141,0.279,0,.613.029,0.613-1.695,0-1.271-.195-1.44-0.64-1.44-1.2,0-4.178.169-5.543,0.226-0.307,0-1.393.084-1.616,0.084a0.739,0.739,0,0,1-.808-0.819c0-.593,0-1.215.028-1.808a1.29,1.29,0,0,1,.446-1.186,0.435,0.435,0,0,0,.167-0.311c0-.254-0.836-0.339-1.5-0.4s-1.532-.226-2.173-0.226m-0.139,11.978c1.142,0,1.393,1.611,1.393,2.486s-0.335,2.317-1.449,2.317-1.309-1.554-1.309-2.4,0.279-2.4,1.365-2.4m8.078-40.256a2.365,2.365,0,0,0-1.421,1.046,0.742,0.742,0,0,0,.251.395c0.613,0.763,1.225,1.554,1.782,2.373a0.583,0.583,0,0,0,.39.339,2.287,2.287,0,0,0,1.421-1.186,10.918,10.918,0,0,0-2.423-2.967m3.37-1.553a2.327,2.327,0,0,0-1.421,1.073,0.678,0.678,0,0,0,.195.367,23.838,23.838,0,0,1,1.811,2.345,0.668,0.668,0,0,0,.418.367,2.3,2.3,0,0,0,1.42-1.186,11.434,11.434,0,0,0-2.423-2.966m-21.058-1.639a12.756,12.756,0,0,0,.307,2.034,1.048,1.048,0,0,0,.613.932,2.131,2.131,0,0,0,.417-0.056,62.339,62.339,0,0,1,6.156-1.158c0.279-.029,1.56-0.255,1.755-0.255a0.362,0.362,0,0,1,.418.339,1.522,1.522,0,0,1-.474.678,12.652,12.652,0,0,0-3.064,8.108c0,5.509,4.067,7.034,8.8,7.034a0.77,0.77,0,0,0,.891-0.48,8.084,8.084,0,0,0,.418-2.316c0-.452-0.223-0.481-0.64-0.481-0.307,0-.92.029-1.393,0.029-2.841,0-4.9-.791-4.9-4.068a10.686,10.686,0,0,1,1.337-4.972,8.5,8.5,0,0,1,4.735-4.21,13.607,13.607,0,0,1,4.624-.593c0.668-.028,1.253.028,1.253-0.593a12.957,12.957,0,0,0-.251-2.062c-0.055-.339-0.111-0.707-0.529-0.707a1.526,1.526,0,0,0-.362.029c-2.089.339-4.206,0.621-6.323,0.875-4.039.481-8.105,0.9-12.172,1.159-1.226.084-1.616,0-1.616,0.734m0.474-22.091c-0.028.056-.5,1.214-0.5,1.243,0,0.48,2.229,1.3,2.674,1.3a0.815,0.815,0,0,0,.613-0.876,19.714,19.714,0,0,1,2.563-5.932,8.311,8.311,0,0,1,2.841-2.571,5.144,5.144,0,0,1,2.395-.791,1.063,1.063,0,0,1,1.059,1.3,12.84,12.84,0,0,1-.307,2.288,18.429,18.429,0,0,0-.362,3.277c0,1.78.808,3.5,2.786,3.5,2.172,0,4.066-1.554,5.6-2.966,0.669-.622,1.31-1.272,1.95-1.921a1.1,1.1,0,0,0,.307-0.622c0-.395-0.947-2.627-1.449-2.627a0.868,0.868,0,0,0-.557.395c-0.863,1.243-3.509,4.662-5.069,4.662a0.9,0.9,0,0,1-.725-1.074,16.36,16.36,0,0,1,.446-2.768,15.077,15.077,0,0,0,.362-2.741,4.777,4.777,0,0,0-.306-1.779,3.3,3.3,0,0,0-2.953-1.667,6.2,6.2,0,0,0-2.952.96,1.1,1.1,0,0,1-.5.2,0.3,0.3,0,0,1-.278-0.282,36.713,36.713,0,0,1,2.813-4.52,28.187,28.187,0,0,1,1.755-2.317,1.2,1.2,0,0,1,.724-0.367,0.473,0.473,0,0,0,.5-0.452,3.837,3.837,0,0,0-1.282-1.215,7,7,0,0,0-1.56-1.073,0.691,0.691,0,0,0-.417.423c-0.363.678-.725,1.272-1.142,1.95a87.4,87.4,0,0,0-5.822,9.972c-1.142,2.345-2.173,4.718-3.2,7.091m1.42-52.065a0.348,0.348,0,0,0-.39.311c-0.055.254-.139,3.842-0.139,4.294,0,2.994.223,6.554,1.616,9.209,0.919,1.723,2.534,3.616,4.6,3.616a3.994,3.994,0,0,0,2.98-1.78c0.39-.452,1.643-1.921,1.643-2.457a3.1,3.1,0,0,0-2-1.667,1.108,1.108,0,0,0-.752.706c-0.334.622-1.142,1.865-1.922,1.865-0.975,0-1.894-1.667-2.228-2.458a16.338,16.338,0,0,1-.892-5.9,21.4,21.4,0,0,1,.223-3,2.084,2.084,0,0,1,.5-1.356,0.491,0.491,0,0,0,.279-0.367,0.627,0.627,0,0,0-.613-0.4c-0.473-.084-2.534-0.621-2.9-0.621m12.563,1.836a0.467,0.467,0,0,0,.25.424,10.887,10.887,0,0,1,4.123,8.051c0.055,0.678.028,1.074,0.919,1.074a5.791,5.791,0,0,0,1.56-.255,0.784,0.784,0,0,0,.752-0.819,15.576,15.576,0,0,0-1.644-5.876c-1.337-2.6-3.676-4.379-4.289-4.379a2.713,2.713,0,0,0-1.671,1.78m-6.685-43.194c-0.251,0-.251.282-0.251,0.48a17.491,17.491,0,0,1-.891,4.746,0.95,0.95,0,0,1-.836.452,24.39,24.39,0,0,1-2.869.141h-1.281a0.408,0.408,0,0,0-.5.452c0,0.283.14,1.3,0.195,1.639,0.112,0.65.223,0.9,0.7,0.9,0.64,0,2.785-.283,3.008-0.283a0.377,0.377,0,0,1,.39.368,11.079,11.079,0,0,1-.641,1.723,52.962,52.962,0,0,1-3.314,6.526,3.123,3.123,0,0,0-.5,1.017c0,0.593,1.866,1.412,2.479,1.412a0.557,0.557,0,0,0,.557-0.395,72.49,72.49,0,0,0,4.541-10.057c0.334-.933.306-1.13,1.309-1.3,2.562-.48,2.9-0.537,2.9-1.158a13.5,13.5,0,0,0-.14-1.5c-0.055-.339-0.083-0.848-0.418-0.848a0.95,0.95,0,0,0-.278.057,13.482,13.482,0,0,1-1.588.423,0.327,0.327,0,0,1-.306-0.367,9.35,9.35,0,0,1,.306-1.271,4.973,4.973,0,0,1,.5-1.5,0.82,0.82,0,0,0,.445-0.509,0.567,0.567,0,0,0-.445-0.339c-0.446-.141-2.758-0.819-3.064-0.819m9.359,4.6a3.614,3.614,0,0,0-1.867,1.949,0.74,0.74,0,0,0,.362.452,15.871,15.871,0,0,1,3.482,3.644,0.92,0.92,0,0,0,.613.509c0.5,0,2.089-1.272,2.089-1.95,0-.734-3.983-4.6-4.679-4.6m-4.262,4.35a0.567,0.567,0,0,0-.669.622c0,0.141.028,0.254,0.028,0.395,0.084,1.1.5,5.2,0.5,6.1a0.491,0.491,0,0,1-.585.48h-0.724c-2.2,0-4.624.9-4.624,3.5,0,2.628,2.646,3.842,4.9,3.842,1.894,0,3.538-.706,3.872-2.768a0.624,0.624,0,0,1,.445-0.65,7.891,7.891,0,0,1,2.229,1.3,1.413,1.413,0,0,0,.724.395c0.7,0,1.727-1.61,1.727-2.062,0-.678-3.287-2.232-3.928-2.486-0.083-.028-0.194-0.085-0.278-0.113a1.091,1.091,0,0,1-.864-0.706c-0.139-.594-0.278-4.662-0.278-5.481,0-.593.056-1.441,0.056-1.5a0.629,0.629,0,0,0-.557-0.593,11.526,11.526,0,0,0-1.978-.283m-1.365,9.972c1.393,0,1.421.311,1.421,0.876a1.312,1.312,0,0,1-1.449,1.526c-0.724,0-1.838-.452-1.838-1.328,0-.9,1.2-1.074,1.866-1.074m-2.451-54.07c-0.557,0-1.365,1.723-1.365,2.119a0.745,0.745,0,0,0,.613.593,18.513,18.513,0,0,1,4.011,2.514,0.927,0.927,0,0,0,.473.226c0.446,0,1.56-1.949,1.56-2.373a0.487,0.487,0,0,0-.223-0.395,21.324,21.324,0,0,0-2.228-1.356,15.831,15.831,0,0,0-2.841-1.328m7.8,4.04a0.656,0.656,0,0,0,.223.339,26.683,26.683,0,0,1,2.061,2.288,0.491,0.491,0,0,0,.362.254,2.218,2.218,0,0,0,1.337-1.271,10.865,10.865,0,0,0-2.618-2.8,2.366,2.366,0,0,0-1.365,1.187m-2.117,13.221a6.1,6.1,0,0,0-1.225-3.56,0.88,0.88,0,0,1-.168-0.367,0.516,0.516,0,0,1,.53-0.4,5.713,5.713,0,0,1,1.643.452,9.569,9.569,0,0,1,4.317,4.605,1.037,1.037,0,0,0,.669.819c0.641,0,2.618-1.073,2.618-1.553,0-.509-3.537-7.063-10.194-7.063a8.2,8.2,0,0,0-1.449.141c-0.111,0-.223.029-0.334,0.029a2.151,2.151,0,0,1-1.476-1.639,3.4,3.4,0,0,1,.585-1.723,1.756,1.756,0,0,0,.222-0.509c0-.423-1.921-1.13-2.311-1.13-0.864,0-1.365,2.656-1.365,3.362a3.007,3.007,0,0,0,.752,2.034,0.942,0.942,0,0,1,.195.452,0.81,0.81,0,0,1-.613.65c-2.284,1.215-5.348,3.164-7.632,4.068a0.668,0.668,0,0,0-.529.48c0,0.367,1.392,3.051,1.866,3.051a0.628,0.628,0,0,0,.446-0.395,1.561,1.561,0,0,1,.835-0.848c1.644-1.158,3.343-2.2,5.042-3.277a11.612,11.612,0,0,1,2.59-1.384c0.641,0,1.839,1.808,1.839,2.881a1.036,1.036,0,0,1-1.254,1.074,8.02,8.02,0,0,1-2.451-.452,3.019,3.019,0,0,0-.7-0.141,0.424,0.424,0,0,0-.418.508,7.636,7.636,0,0,0,.306,2.317c0.418,0.395,3.287.593,3.956,0.593,2.089,0,3.7-.735,3.7-3.079m6.295-16.47a2.382,2.382,0,0,0-1.337,1.158,0.581,0.581,0,0,0,.223.367,20.513,20.513,0,0,1,1.838,2.006,0.947,0.947,0,0,0,.585.537,2.262,2.262,0,0,0,1.337-1.3,10.819,10.819,0,0,0-2.646-2.768M493.26,560.506a0.427,0.427,0,0,0-.446.452c-0.139,1.017-.25,2.006-0.39,2.994a1.122,1.122,0,0,1-.278.763,1.062,1.062,0,0,1-.752.254c-0.947.085-1.894,0.113-2.841,0.113-0.5,0-.975-0.028-1.449-0.028-0.5,0-.668.085-0.668,1.5,0,1.328.167,1.328,1.392,1.328,1.031,0,2.062-.141,3.092-0.226,0.112,0,.5-0.056.613-0.056a0.441,0.441,0,0,1,.473.48c0,1.356-.64,1.5-0.807,1.582-3.148,1.525-6.685,4.972-6.685,8.729a3.134,3.134,0,0,0,3.147,3.39,7.927,7.927,0,0,0,4.123-1.526,0.684,0.684,0,0,1,.306-0.113,0.329,0.329,0,0,1,.306.283,0.5,0.5,0,0,0,.474.395c0.613,0,2.117-.96,2.117-1.5v-0.141c-0.028-.141-0.167-0.961-0.167-1.045a0.739,0.739,0,0,1,.278-0.565,25.489,25.489,0,0,0,3.733-5.4,0.924,0.924,0,0,1,.752-0.706,3.874,3.874,0,0,1,2.785,4.039c0,3.56-3.593,5.255-6.518,6.046-0.306.085-.612,0.113-0.612,0.424,0,0.536.668,2.26,1.281,2.26,0.919,0,8.8-2.43,8.8-8.843,0-4.83-3.872-7.062-8.189-7.062-0.557,0-1.254.085-1.811,0.141-0.083,0-.167.028-0.223,0.028a0.407,0.407,0,0,1-.445-0.367,1.068,1.068,0,0,1,.752-1.13c1.114-.169,2.841-0.508,3.927-0.762,0.7-.142,1.365-0.255,1.365-0.791,0-.113-0.223-2.26-0.891-2.26a1.307,1.307,0,0,0-.474.141,21.909,21.909,0,0,1-3.287.932,2.2,2.2,0,0,1-.418.085,0.408,0.408,0,0,1-.389-0.424c0-.113.139-0.706,0.167-0.876a1.271,1.271,0,0,1,.612-1.045,0.532,0.532,0,0,0,.279-0.367c0-.283-0.446-0.367-1.2-0.593-0.306-.085-1.643-0.537-1.838-0.537m-1.866,12.317c0.278,0,.334.226,0.334,0.48s-0.028.537-.028,0.819c0,0.876.084,2.062,0.084,2.317a1.029,1.029,0,0,1-.335.875,7.325,7.325,0,0,1-3.342,1.582,0.728,0.728,0,0,1-.78-0.847c0-2.288,3.482-5.226,4.067-5.226m4.791-1.95a0.3,0.3,0,0,1,.362.255,1.274,1.274,0,0,1-.167.452c-0.223.452-1.254,2.486-1.727,2.486-0.251,0-.279-0.678-0.279-1.13V572.6a1.745,1.745,0,0,1,.279-1.385,3.937,3.937,0,0,1,1.532-.339M489.11,531.38a1.012,1.012,0,0,1-.112-0.311,0.649,0.649,0,0,1,.724-0.621c0.418,0,.975.056,1.365,0.056,0.613,0,.585-0.395.585-1.384,0-.96.028-1.356-0.585-1.356-0.473,0-.919.057-1.365,0.057a0.651,0.651,0,0,1-.724-0.763v-1.752a2.315,2.315,0,0,1,.307-1.666,0.61,0.61,0,0,0,.334-0.4c0-.339-0.39-0.339-0.613-0.367-0.418-.057-1.978-0.226-2.312-0.226-0.278,0-.473.056-0.473,0.367a0.784,0.784,0,0,0,.028.254,13.823,13.823,0,0,1,.083,1.921v1.865a0.658,0.658,0,0,1-.78.763h-0.083c-0.78,0-1.5-.057-2.034-0.057-0.64,0-.585.4-0.585,1.356s-0.055,1.384.585,1.384c0.474,0,1.2-.056,1.755-0.056a0.543,0.543,0,0,1,.641.508c0,0.085-.028.17-0.028,0.226a37.191,37.191,0,0,1-3.287,8.532,2.357,2.357,0,0,0-.418.989,2.851,2.851,0,0,0,1.672,1.776,0.907,0.907,0,0,0,.612-0.621,32.725,32.725,0,0,0,1.727-4.238,0.117,0.117,0,0,1,.112-0.084,0.126,0.126,0,0,1,.111.141v5.452c0,1.356-.056,2.684-0.056,4.04,0,0.763.362,0.791,1.421,0.791,1.086,0,1.365-.057,1.365-0.876,0-1.3-.084-2.627-0.084-3.955v-7.091c0.028-.141.056-0.254,0.195-0.254a0.283,0.283,0,0,1,.195.113c0.223,0.367,1.114,2.034,1.532,2.034,0.446,0,1.337-1.61,1.337-2.034a0.572,0.572,0,0,0-.223-0.4,21.407,21.407,0,0,1-2.924-4.122m7.465,3.2c-0.753,0-1.5-.056-2.285-0.056s-1.42.141-1.42,1.07c0,0.678.056,1.328,0.056,2.063v2.712a0.639,0.639,0,0,1-.752.762h-0.53c-0.585,0-.585.311-0.585,1.017,0,0.763,0,1.046.585,1.046h0.53a0.649,0.649,0,0,1,.752.762v0.537c0,0.9-.056,1.808-0.056,2.74,0,0.763.223,0.791,1.337,0.791,1.058,0,1.337-.028,1.337-0.791,0-.9-0.056-1.808-0.056-2.74v-0.565a0.688,0.688,0,0,1,.78-0.794h5.794a0.7,0.7,0,0,1,.78.794v0.311c0,1.158-.112,1.271-1.477,1.271-0.362,0-.752-0.028-1.086-0.028-0.473,0-.557.282-0.557,0.734,0,1.95,1.031,1.808,1.476,1.808a8.5,8.5,0,0,0,3.176-.423,1.848,1.848,0,0,0,1.03-2.006c0-.565-0.028-1.13-0.055-1.7a0.672,0.672,0,0,1,.752-0.735,5.36,5.36,0,0,0,.7.029c0.585,0,.585-0.311.585-1.046s-0.028-1.017-.613-1.017a5.141,5.141,0,0,0-.668.029,0.679,0.679,0,0,1-.752-0.791v-2.741c0-.765.055-1.469,0.055-2.034,0-.929-0.613-1.07-1.42-1.07-0.752,0-1.5.056-2.256,0.056H500.92a0.455,0.455,0,0,1-.529-0.539V533.81a0.447,0.447,0,0,1,.529-0.54h3.2c0.891,0,1.783.056,2.7,0.056,0.585,0,.585-0.279.585-1.042,0-.734,0-1.014-0.585-1.014-0.919,0-1.811.028-2.7,0.028h-0.279a0.437,0.437,0,0,1-.5-0.539V530.5a0.43,0.43,0,0,1,.446-0.536c0.668-.029,1.309.056,1.977,0.056,0.557,0,.53-0.339.53-1.045,0-.678.027-1.017-0.53-1.017-0.64,0-1.281.085-1.949,0.056-0.363,0-.474-0.2-0.474-0.565v-0.169a0.445,0.445,0,0,1,.529-0.537c0.808-.028,1.644.057,2.479,0.057,0.585,0,.557-0.311.557-1.046s0.028-1.045-.557-1.045c-0.752,0-1.5.028-2.228,0.057a0.653,0.653,0,0,1-.752-0.565c0-.029.028-0.142,0.028-0.17a0.717,0.717,0,0,1,.278-0.477,0.511,0.511,0,0,0,.362-0.4c0-.226-0.306-0.254-0.473-0.282-0.362-.057-2.2-0.2-2.535-0.2-0.278,0-.5.056-0.5,0.395,0,0.085.083,0.707,0.111,0.9a0.658,0.658,0,0,1-.752.791h-1.476a0.613,0.613,0,0,1-.724-0.593v-0.141a0.69,0.69,0,0,1,.306-0.48,0.618,0.618,0,0,0,.362-0.4,0.414,0.414,0,0,0-.473-0.282c-0.362-.057-2.257-0.2-2.591-0.2-0.278,0-.5.056-0.5,0.395,0,0.085.083,0.735,0.111,0.961a0.641,0.641,0,0,1-.724.734c-0.557-.028-1.56-0.056-2.089-0.056-0.557,0-.557.336-0.557,1.042s-0.028,1.043.557,1.043c0.78,0,1.532-.085,2.312-0.057a0.466,0.466,0,0,1,.529.54v0.169a0.447,0.447,0,0,1-.5.54c-0.557,0-1.114-.028-1.671-0.028s-0.558.279-.558,1.014,0,1.042.558,1.042c0.139,0,1.559-.056,1.671-0.056a0.456,0.456,0,0,1,.5.539v0.255a0.454,0.454,0,0,1-.529.539c-0.919,0-1.866-.028-2.785-0.028-0.585,0-.558.308-0.558,1.014,0,0.735,0,1.042.558,1.042,0.919,0,1.81-.056,2.729-0.056h3.064a0.466,0.466,0,0,1,.529.54v0.226a0.465,0.465,0,0,1-.529.539h-0.835Zm0.7,1.944a0.65,0.65,0,0,1,.668.681v0.084a0.65,0.65,0,0,1-.668.681h-1.114a0.651,0.651,0,0,1-.669-0.681V537.2a0.651,0.651,0,0,1,.669-0.681h1.114Zm5.571,0.765a0.651,0.651,0,0,1-.669.681h-1.114a0.65,0.65,0,0,1-.668-0.681V537.2a0.65,0.65,0,0,1,.668-0.681h1.114a0.651,0.651,0,0,1,.669.681v0.084Zm-7.354,3.023a0.651,0.651,0,0,1,.669-0.681h1.114a0.651,0.651,0,0,1,.668.681v0.2a0.651,0.651,0,0,1-.668.681h-1.114a0.651,0.651,0,0,1-.669-0.681v-0.2Zm5.571,0.879a0.651,0.651,0,0,1-.668-0.681v-0.2a0.651,0.651,0,0,1,.668-0.681h1.114a0.651,0.651,0,0,1,.669.681v0.2a0.651,0.651,0,0,1-.669.681h-1.114Zm-3.426-13.9a0.552,0.552,0,0,1,.529-0.54h1.978a0.552,0.552,0,0,1,.529.54v0.169a0.54,0.54,0,0,1-.529.565h-1.978a0.54,0.54,0,0,1-.529-0.565v-0.169Zm0,3.22a0.552,0.552,0,0,1,.529-0.536h1.978a0.552,0.552,0,0,1,.529.536v0.255a0.5,0.5,0,0,1-.529.539h-1.978a0.5,0.5,0,0,1-.529-0.539V530.5Zm-13.342-39.917a1.063,1.063,0,0,0-.5-0.254c-0.474,0-1.226,1.582-1.226,1.893a0.53,0.53,0,0,0,.306.452,30.306,30.306,0,0,1,3.12,2.6,0.936,0.936,0,0,1,.306.619,0.852,0.852,0,0,1-.167.509c-0.25.423-.529,0.819-0.808,1.243a1.123,1.123,0,0,1-1.03.593c-0.334.028-.7,0.056-1,0.056-0.473,0-.752.029-0.752,0.311a1.938,1.938,0,0,0,.056.4c0.111,0.508.195,0.932,0.278,1.271,0.195,0.96.251,1.3,0.585,1.3a0.555,0.555,0,0,0,.418-0.339,0.367,0.367,0,0,1,.362-0.282c0.418-.057.975-0.113,1.421-0.17,0.25-.028.529-0.056,0.7-0.056a0.577,0.577,0,0,1,.613.706v5.113c0,1.187-.056,2.4-0.056,3.588,0,0.9.251,0.932,1.393,0.932s1.393-.028,1.393-0.932c0-1.186-.084-2.4-0.084-3.588v-5.48a0.777,0.777,0,0,1,.752-0.9c0.279-.057.557-0.085,0.864-0.141a0.455,0.455,0,0,1,.2-0.029,0.6,0.6,0,0,1,.584.481c0.168,0.48.251,0.9,0.669,0.9,0.251,0,1.671-.4,1.671-0.876a20.1,20.1,0,0,0-1.086-3c-0.084-.2-0.139-0.367-0.195-0.48-0.724-1.808-.864-2.147-1.309-2.147-0.223,0-1.532.367-1.532,0.791a7.784,7.784,0,0,0,.5,1.3,0.835,0.835,0,0,1,.056.282,0.528,0.528,0,0,1-.529.509l-1.672.169a0.334,0.334,0,0,1-.39-0.311,0.325,0.325,0,0,1,.084-0.226c1.337-1.921,2.535-3.9,3.76-5.876a0.64,0.64,0,0,1,.557-0.31c0.195-.029.418-0.057,0.418-0.311a0.9,0.9,0,0,0-.5-0.565,20.855,20.855,0,0,0-2.061-1.074,0.572,0.572,0,0,0-.418.452c-0.585,1.13-1.2,2.232-1.811,3.306a0.582,0.582,0,0,1-.5.339,0.729,0.729,0,0,1-.418-0.2,5.26,5.26,0,0,0-.418-0.4,0.593,0.593,0,0,1-.223-0.452,0.646,0.646,0,0,1,.084-0.31c0.919-1.837,1.2-2.486,2.006-4.294a0.664,0.664,0,0,1,.417-0.311,0.387,0.387,0,0,0,.446-0.339,1.013,1.013,0,0,0-.668-0.537c-0.056-.028-0.14-0.056-0.251-0.113a13.635,13.635,0,0,0-1.588-.593,0.419,0.419,0,0,0-.362.4,33.909,33.909,0,0,1-1.671,4.21,0.516,0.516,0,0,1-.418.31,0.648,0.648,0,0,1-.362-0.141m18.968,19.747c0,0.113-.027.226-0.027,0.339,0,0.593.557,0.537,1.392,0.537,1.114,0,1.449.028,1.449-.622,0-.706-0.056-1.412-0.056-2.119V503.5c0-.565.056-1.13,0.056-1.666,0-1.015-.7-1.184-1.532-1.184-0.641,0-1.309.056-1.95,0.056h-4.54c-0.669,0-1.337-.056-1.978-0.056-0.863,0-1.5.2-1.5,1.212,0,0.537.056,1.1,0.056,1.638v4.916c0,0.734-.056,1.441-0.056,2.147,0,0.621.334,0.621,1.393,0.621,1.086,0,1.448.029,1.448-.621a0.707,0.707,0,0,0-.028-0.226,0.567,0.567,0,0,1,.641-0.65h4.6a0.566,0.566,0,0,1,.64.65m-5.125-3.161a0.751,0.751,0,0,1-.78-0.791v-2.348a0.7,0.7,0,0,1,.78-0.763h4.4a0.721,0.721,0,0,1,.752.763v2.348a0.744,0.744,0,0,1-.752.791h-4.4Zm4.29-17.572a0.639,0.639,0,0,1-.752-0.734v-0.82a1.348,1.348,0,0,1,.306-1.13,0.591,0.591,0,0,0,.334-0.423c0-.339-0.417-0.368-0.64-0.4-0.474-.056-1.95-0.2-2.368-0.2a0.382,0.382,0,0,0-.473.4c0,0.085.028,0.169,0.028,0.254a15.8,15.8,0,0,1,.111,2.288,0.658,0.658,0,0,1-.78.763h-1.226c-0.974,0-1.949-.056-2.9-0.056-0.752,0-.725.367-0.725,1.381,0,1.045-.027,1.413.725,1.413,0.947,0,1.922-.085,2.9-0.085h1.226a0.677,0.677,0,0,1,.78.791v1.726a0.667,0.667,0,0,1-.78.791h-0.752c-0.891,0-1.783-.057-2.674-0.057-0.752,0-.724.339-0.724,1.354,0,0.988-.028,1.356.7,1.356,0.919,0,1.811-.057,2.7-0.057h5.933c0.891,0,1.81.057,2.7,0.057,0.78,0,.724-0.424.724-1.356s0.056-1.354-.724-1.354c-0.892,0-1.811.057-2.7,0.057h-0.947a0.668,0.668,0,0,1-.752-0.791v-1.726a0.668,0.668,0,0,1,.752-0.791h1.365c0.975,0,1.949.085,2.924,0.085,0.752,0,.7-0.4.7-1.413,0-.986.055-1.381-0.724-1.381-0.948,0-1.922.056-2.9,0.056h-1.365Zm-18.3,12.371a0.412,0.412,0,0,0-.362.48,37.584,37.584,0,0,1-1.2,5.9,3.663,3.663,0,0,0-.167.707c0,0.508,1.365.762,1.755,0.762a0.71,0.71,0,0,0,.585-0.734c0.334-1.215.947-4.153,1.114-5.368a0.609,0.609,0,0,1,.418-0.621,0.428,0.428,0,0,0,.278-0.339c0-.339-0.529-0.4-0.919-0.48a10.935,10.935,0,0,0-1.5-.311m9.582,4.494a21.208,21.208,0,0,0-.753-2.545c-0.64-1.808-.835-2.542-1.309-2.542-0.111,0-1.587.282-1.587,0.791a0.805,0.805,0,0,0,.111.367,31.09,31.09,0,0,1,1.337,4.042,0.794,0.794,0,0,0,.641.791c0.167,0,1.56-.31,1.56-0.9m7.715-56.983a3.837,3.837,0,0,0-1.894,1.978,0.718,0.718,0,0,0,.474.508,16.916,16.916,0,0,1,4.261,3.871,0.9,0.9,0,0,0,.585.423,3.582,3.582,0,0,0,2.006-2.175c0-.678-4.791-4.605-5.432-4.605m-6.6-36.188a10.509,10.509,0,0,0-1.393-.452c-0.279,0-.334.255-0.418,0.565-0.223.819-.835,2.825-1.086,3.786a0.7,0.7,0,0,1-.641.678,0.84,0.84,0,0,1-.362-0.085,17.516,17.516,0,0,1-1.894-.989,1.5,1.5,0,0,0-.641-0.31c-0.584,0-1.03,1.949-1.03,2.429,0,0.509.557,0.763,2.507,1.525a1.018,1.018,0,0,1,.891.933,6.171,6.171,0,0,1-.111.621c-0.084.424-.195,0.791-0.251,1.1-0.167.819-.251,1.215-0.724,1.215a5.022,5.022,0,0,1-1.783-.791,1.524,1.524,0,0,0-.7-0.283c-0.7,0-.975,2.232-0.975,2.4a0.748,0.748,0,0,0,.529.678,9.163,9.163,0,0,0,1.643.677c0.641,0.2,1.115.368,1.115,0.989,0,0.283-.112,1.356-0.112,2.063,0,4.293,2.479,6.751,6.685,6.751,3.705,0,7.688-1.525,7.688-5.9a15.69,15.69,0,0,0-.919-4.944c-0.223-.621-0.307-1.073-0.752-1.073-0.307,0-2.368.367-2.368,1.045a1.52,1.52,0,0,0,.111.508,12.35,12.35,0,0,1,.947,4.1,2.873,2.873,0,0,1-.612,2.006c-0.864.988-2.786,1.327-4.039,1.327-2.423,0-3.705-1.3-3.705-3.757,0-1.215,0-1.921.752-1.921a2.657,2.657,0,0,1,.446.057c0.668,0.084,1.978.282,2.618,0.282a0.737,0.737,0,0,0,.78-0.65,6.322,6.322,0,0,0,.362-1.892c0-.283-0.083-0.481-0.835-0.481a24.725,24.725,0,0,1-2.507-.113c-0.39-.028-0.975-0.056-0.975-0.649,0-.227.39-2.006,0.473-2.345a0.782,0.782,0,0,1,.752-0.678,0.805,0.805,0,0,1,.251.056,34.371,34.371,0,0,0,3.788.424,0.62,0.62,0,0,0,.613-0.621,8.459,8.459,0,0,0,.307-1.837c0-.565-0.418-0.537-0.948-0.537-0.947-.028-1.894-0.112-2.841-0.226a0.679,0.679,0,0,1-.752-0.649,1.011,1.011,0,0,1,.084-0.4c0.223-.678.446-1.384,0.7-2.062a1.6,1.6,0,0,1,.975-1.243,0.4,0.4,0,0,0,.251-0.311c0-.452-1.421-0.847-1.894-1.017m9.387-22.741c0-.4.055-0.819,0.055-1.243a1.018,1.018,0,0,0-1.253-1.127c-0.752,0-1.5.057-2.256,0.057h-3.761a0.456,0.456,0,0,1-.529-0.54v-0.142a0.456,0.456,0,0,1,.529-0.539H499.3c0.864,0,1.7.028,2.535,0.028,0.641,0,1.56-.056,1.56-0.9,0-.282-0.056-0.537-0.056-1.014V383.6c0-.478.056-0.732,0.056-1.014,0-.873-0.947-0.93-1.588-0.93-0.836,0-1.671.057-2.507,0.057h-2.312a0.456,0.456,0,0,1-.529-0.54v-0.17a0.456,0.456,0,0,1,.529-0.539h5.655c1.142,0,2.312.057,3.454,0.057,0.64,0,.612-0.337.612-1.1s0.028-1.07-.612-1.07c-1.142,0-2.284.057-3.454,0.057h-5.4a0.659,0.659,0,0,1-.752-0.792,0.886,0.886,0,0,1,.279-0.819,0.557,0.557,0,0,0,.334-0.395c0-.339-0.474-0.339-0.752-0.368-0.446-.056-2.062-0.226-2.424-0.226-0.278,0-.5.057-0.5,0.4,0,0.057.028,0.169,0.028,0.254,0.056,0.4.083,0.791,0.111,1.187a0.677,0.677,0,0,1-.78.763h-5.431c-1.142,0-2.312-.057-3.454-0.057-0.613,0-.613.282-0.613,1.07s0,1.1.613,1.1c1.17,0,2.312-.057,3.454-0.057h5.682a0.456,0.456,0,0,1,.529.539v0.17a0.466,0.466,0,0,1-.529.54h-2.312c-0.835,0-1.671-.057-2.507-0.057-0.64,0-1.587.057-1.587,0.93,0,0.282.055,0.536,0.055,1.014v1.531c0,0.477-.055.732-0.055,1.014,0,0.845.947,0.9,1.587,0.9,0.836,0,1.672-.028,2.507-0.028h2.312a0.465,0.465,0,0,1,.529.539V387.7a0.466,0.466,0,0,1-.529.54H487.3c-0.7,0-1.42-.057-2.117-0.057-0.473,0-.473.251-0.473,0.986,0,0.763,0,1.014.5,1.014,0.7,0,1.393-.057,2.089-0.057h5.738a0.466,0.466,0,0,1,.529.54v0.141a0.447,0.447,0,0,1-.529.512H486.77c-1.17,0-2.368-.028-3.538-0.028-0.584,0-.557.335-0.557,0.929s-0.027.957,0.53,0.957c1.2,0,2.4-.056,3.565-0.056h6.267a0.466,0.466,0,0,1,.529.54v0.169a0.445,0.445,0,0,1-.529.511h-4.345c-1.114,0-2.256-.028-3.4-0.028-0.641,0-.669.2-0.669,0.986s0.028,1.014.669,1.014c1.142,0,2.284-.056,3.4-0.056h4.094a0.669,0.669,0,0,1,.78.737c-0.055,1.1-.167,1.472-1.56,1.472-0.668,0-1.2-.113-1.559-0.113a0.514,0.514,0,0,0-.53.647c0,2.229.92,2.087,1.7,2.087,2.033,0,4.9-.056,4.9-2.79,0-.286,0-1.021-0.028-1.3a0.64,0.64,0,0,1,.752-0.737h3.621a0.477,0.477,0,0,1,.446.341c0.139,0.339.529,0.339,1.365,0.339,1.169,0,1.615.029,1.615-.652,0-.534-0.083-1.269-0.083-2v-0.37a0.658,0.658,0,0,1,.752-0.763c0.585,0,1.169.028,1.754,0.028,0.557,0,.557-0.311.557-0.96,0-.594.028-0.933-0.557-0.933s-1.169,0-1.782.029a0.686,0.686,0,0,1-.724-0.763m-7.744.113a0.555,0.555,0,0,1,.529-0.54h3.788a0.555,0.555,0,0,1,.53.54v0.113a0.5,0.5,0,0,1-.53.54h-3.788a0.5,0.5,0,0,1-.529-0.54v-0.113Zm4.317,2.455a0.555,0.555,0,0,1,.53.54V393.8a0.5,0.5,0,0,1-.53.539h-3.788a0.5,0.5,0,0,1-.529-0.539v-0.141a0.555,0.555,0,0,1,.529-0.54h3.788ZM492.9,383.6a0.65,0.65,0,0,1,.668.681v0.169a0.65,0.65,0,0,1-.668.681h-2.813a0.651,0.651,0,0,1-.669-0.681v-0.169a0.651,0.651,0,0,1,.669-0.681H492.9Zm3.565,0.681a0.651,0.651,0,0,1,.669-0.681h2.813a0.65,0.65,0,0,1,.668.681v0.169a0.65,0.65,0,0,1-.668.681h-2.813a0.651,0.651,0,0,1-.669-0.681v-0.169Zm-10.584-24.719c0,1.271-.056,2.57-0.056,3.842,0,0.819.306,0.819,1.448,0.819,1.17,0,1.477,0,1.477-.819,0-1.272-.084-2.571-0.084-3.842V349.083c0-.932.028-1.441,0.334-1.666a0.489,0.489,0,0,0,.307-0.4c0-.282-0.335-0.311-0.557-0.339a0.251,0.251,0,0,1-.251-0.254,0.312,0.312,0,0,1,.028-0.142,39.675,39.675,0,0,0,2.507-4.83,0.894,0.894,0,0,1,.7-0.735,0.511,0.511,0,0,0,.39-0.395c0-.367-0.752-0.594-1.114-0.735a10.067,10.067,0,0,0-1.839-.621,0.578,0.578,0,0,0-.529.565c-1.309,4.011-3.565,7.062-5.933,10.057a1.478,1.478,0,0,0-.445.847c0,0.481,1,2.091,1.532,2.091a2.881,2.881,0,0,0,1.337-1.215l0.306-.395a0.248,0.248,0,0,1,.223-0.142,0.265,0.265,0,0,1,.223.311v8.475ZM495.99,350.1a0.677,0.677,0,0,1,.78.791v8.644a0.668,0.668,0,0,1-.78.792H494.4c-1.031,0-2.061-.085-3.12-0.085-0.7,0-.7.282-0.7,1.469,0,1.1,0,1.441.668,1.441,1.059,0,2.117-.085,3.148-0.085h7.771c1.059,0,2.089.085,3.148,0.085,0.7,0,.668-0.311.668-1.441s0.028-1.469-.668-1.469c-1.059,0-2.089.085-3.148,0.085h-1.727a0.668,0.668,0,0,1-.78-0.792v-8.644a0.677,0.677,0,0,1,.78-0.791h3.092c1.058,0,2.117.085,3.175,0.085,0.7,0,.669-0.339.669-1.441,0-1.073.028-1.441-.669-1.441-1.058,0-2.117.057-3.175,0.057h-3.092a0.658,0.658,0,0,1-.78-0.763v-4.746c0-1.158.028-1.441,0.39-1.666a0.775,0.775,0,0,0,.446-0.509,0.425,0.425,0,0,0-.5-0.367c-0.446-.057-2.479-0.226-2.842-0.226a0.38,0.38,0,0,0-.473.424,0.88,0.88,0,0,0,.028.254c0.056,0.536.056,1.384,0.056,2.2V346.6a0.658,0.658,0,0,1-.78.763h-2.424c-1.058,0-2.117-.057-3.175-0.057-0.7,0-.669.339-0.669,1.441s-0.027,1.441.669,1.441c1.058,0,2.117-.085,3.175-0.085h2.424Zm-0.168-44.607a11.56,11.56,0,0,0-11.559,11.866,8.958,8.958,0,0,0,.864,4.011,4.492,4.492,0,0,0,3.788,2.684,4.972,4.972,0,0,0,3.676-2.176c2.674-3.248,3.649-8.277,3.956-12.4,0.028-.481.028-1.1,0.668-1.1a4.854,4.854,0,0,1,1.059.254,6.854,6.854,0,0,1,4.456,6.752c0,4.04-2.869,6.469-6.518,7.345-0.278.056-.7,0.113-0.7,0.395,0,0.622,1.142,2.374,1.866,2.374a10.731,10.731,0,0,0,3.036-1.131,10.167,10.167,0,0,0,5.432-9.124,9.627,9.627,0,0,0-2.813-6.95,9.833,9.833,0,0,0-7.215-2.8m-2.674,3.306a0.444,0.444,0,0,1,.446.508,29.115,29.115,0,0,1-.891,5.509c-0.78,2.881-2.34,6.1-3.733,6.1-1.42,0-1.782-2.627-1.782-3.672a8.751,8.751,0,0,1,5.013-8.136,3.085,3.085,0,0,1,.947-0.311m-8.662-22.77c-0.028.057-.5,1.215-0.5,1.243,0,0.481,2.229,1.3,2.674,1.3a0.816,0.816,0,0,0,.613-0.876,19.714,19.714,0,0,1,2.563-5.932,8.3,8.3,0,0,1,2.841-2.571,5.132,5.132,0,0,1,2.395-.791,1.063,1.063,0,0,1,1.059,1.3,12.816,12.816,0,0,1-.307,2.288,18.45,18.45,0,0,0-.362,3.278c0,1.779.808,3.5,2.786,3.5,2.172,0,4.066-1.554,5.6-2.967,0.669-.621,1.31-1.271,1.95-1.921a1.1,1.1,0,0,0,.307-0.621c0-.4-0.947-2.627-1.449-2.627a0.868,0.868,0,0,0-.557.395c-0.863,1.243-3.509,4.661-5.069,4.661a0.9,0.9,0,0,1-.725-1.073,16.372,16.372,0,0,1,.446-2.769,15.078,15.078,0,0,0,.362-2.74,4.786,4.786,0,0,0-.306-1.78,3.3,3.3,0,0,0-2.953-1.667,6.205,6.205,0,0,0-2.952.961,1.1,1.1,0,0,1-.5.2,0.3,0.3,0,0,1-.278-0.283,36.863,36.863,0,0,1,2.813-4.52,28,28,0,0,1,1.755-2.316,1.2,1.2,0,0,1,.724-0.367,0.474,0.474,0,0,0,.5-0.452,3.827,3.827,0,0,0-1.282-1.215,7.006,7.006,0,0,0-1.56-1.074,0.693,0.693,0,0,0-.417.424c-0.363.678-.725,1.271-1.142,1.949a87.5,87.5,0,0,0-5.822,9.973c-1.142,2.344-2.173,4.717-3.2,7.09m9.47-56.274c-0.39,0-2.7.594-2.7,1.159a0.938,0.938,0,0,0,.195.451,19.352,19.352,0,0,1,2.089,3.447,0.669,0.669,0,0,1-.668.565A30.679,30.679,0,0,1,487.3,236c-0.362.028-.668,0.056-0.668,0.508a5.558,5.558,0,0,0,.334,1.5c0.251,0.791.39,1.017,1,1.017a38.324,38.324,0,0,0,6.6-1.073,1.7,1.7,0,0,1,.362-0.085,1.32,1.32,0,0,1,1.059.989c0.557,1.017,1,1.78,1.615,2.74a1.122,1.122,0,0,1,.167.424,0.282,0.282,0,0,1-.306.254,0.96,0.96,0,0,1-.307-0.085,8.745,8.745,0,0,0-3.481-.819c-3.12,0-5.877,2.034-5.877,5.4,0,3.333,2.618,5.028,5.515,5.763a21.053,21.053,0,0,0,4.79.65,0.8,0.8,0,0,0,.948-0.481,5.309,5.309,0,0,0,.278-1.723c0-.508-0.083-0.9-0.641-0.9-0.362,0-.919.057-1.559,0.057-2.145,0-6.407-.594-6.407-3.5a2.728,2.728,0,0,1,2.981-2.515,13.277,13.277,0,0,1,6.6,2.373,2.689,2.689,0,0,0,1.058.593,3.046,3.046,0,0,0,1.978-1.864,1.338,1.338,0,0,0-.446-0.791,32.469,32.469,0,0,1-4.038-6.215,2.2,2.2,0,0,1-.474-1.074,1.021,1.021,0,0,1,.919-0.762,21.291,21.291,0,0,0,2.563-1.215,1.315,1.315,0,0,0,.835-0.734c0-.509-1.225-2.2-1.782-2.2a1.644,1.644,0,0,0-.752.339,12.768,12.768,0,0,1-3.036,1.526,0.816,0.816,0,0,1-.752-0.537c-0.585-1.1-1.115-2.2-1.727-3.277a0.721,0.721,0,0,0-.7-0.509m1.727-16.1a0.668,0.668,0,0,1-.78.793h-4.122c-1.031,0-2.033-.056-3.036-0.056-0.641,0-.613.364-0.613,1.156s-0.056,1.183.613,1.183c1,0,2-.056,3.036-0.056h12.813c1,0,2.033.056,3.036,0.056,0.64,0,.613-0.364.613-1.183,0-.848.027-1.156-0.641-1.156-1,0-2.006.056-3.008,0.056h-4.318a0.668,0.668,0,0,1-.78-0.793v-0.622a0.669,0.669,0,0,1,.78-0.793h2.535c1,0,2.006.056,3.036,0.056,0.613,0,.613-0.226.613-1.184,0-.929.028-1.212-0.641-1.212-1,0-2,.085-3.008.085h-2.535a0.669,0.669,0,0,1-.78-0.794,0.589,0.589,0,0,1,.363-0.593,0.445,0.445,0,0,0,.362-0.4c0-.31-0.446-0.341-1.226-0.4-0.167,0-.334-0.028-0.5-0.028a0.057,0.057,0,0,1,0-.113l4.958-.251a1.057,1.057,0,0,1,1.142.565c0.613,0.847.78,1.242,1.058,1.242,0.5,0,2.006-.762,2.006-1.3,0-.565-3.036-3.983-3.593-4.576a0.31,0.31,0,0,1-.112-0.255,0.306,0.306,0,0,1,.362-0.285c0.892,0,1.811.056,2.73,0.056,0.641,0,.613-0.336.613-1.183,0-.819.028-1.156-0.585-1.156-1.059,0-2.117.057-3.176,0.057h-11.28c-1.059,0-2.09-.057-3.148-0.057-0.641,0-.613.311-0.613,1.156s-0.028,1.183.613,1.183c1.058,0,2.089-.056,3.148-0.056h1.309a0.416,0.416,0,0,1,.5.4,1.087,1.087,0,0,1-.084.283c-0.25.48-.5,0.932-0.807,1.412a1.068,1.068,0,0,1-1.087.622c-0.612.028-1.2,0.028-1.782,0.028H488.8c-0.223,0-.529,0-0.529.339a12.707,12.707,0,0,0,.334,1.667c0.14,0.565.223,0.96,0.5,0.96a0.494,0.494,0,0,0,.39-0.311,0.436,0.436,0,0,1,.39-0.254c1.7-.056,3.4-0.113,5.1-0.2a0.62,0.62,0,0,1,.613.678,7.766,7.766,0,0,1,.055.79,0.649,0.649,0,0,1-.752.766H492.87c-1,0-2.006-.085-3.036-0.085-0.641,0-.613.311-0.613,1.212,0,0.932,0,1.184.613,1.184,1,0,2.033-.056,3.036-0.056H494.9a0.669,0.669,0,0,1,.78.793v0.622Zm5.07-10.851a0.222,0.222,0,0,1,.25.2,0.25,0.25,0,0,1-.139.2,1.251,1.251,0,0,0-.557.707,1.417,1.417,0,0,0,.585.819,0.5,0.5,0,0,1,.111.282,0.344,0.344,0,0,1-.362.314c-1.5.057-3.036,0.113-4.568,0.113a0.355,0.355,0,0,1-.418-0.37,0.685,0.685,0,0,1,.056-0.255c0.279-.451.529-0.9,0.78-1.356A0.8,0.8,0,0,1,497.1,203a0.509,0.509,0,0,0,.306-0.142,0.3,0.3,0,0,1,.167-0.056h3.176Zm1-3.616c0.78,0,1.56.028,2.34,0.028,0.864,0,1.7-.028,1.7-1.127,0-.537-0.056-1.042-0.056-1.554v-0.9c0-.511.056-1.045,0.056-1.554,0-1.155-.919-1.127-1.81-1.127-0.752,0-1.5.057-2.229,0.057H488.636c-0.835,0-1.671-.085-2.535-0.085-1.086,0-1.5.283-1.5,1.325,0,0.367.028,0.819,0.028,1.384v6.159c0,4.746.084,9.012-2.228,13.334a2.638,2.638,0,0,0-.362.875c0,0.619,1.476,1.325,2,1.325,0.585,0,.864-0.621,1.17-1.24,2.228-4.322,2.312-9.633,2.312-14.407v-1.723a0.66,0.66,0,0,1,.78-0.766h13.453ZM488.19,196.9a0.651,0.651,0,0,1-.668-0.682v-0.31a0.651,0.651,0,0,1,.668-0.681h14.122a0.651,0.651,0,0,1,.669.681v0.31a0.652,0.652,0,0,1-.669.682H488.19Zm4.569-31.191a0.508,0.508,0,0,1,.557.451,0.68,0.68,0,0,1-.056.255c-0.307.678-.613,1.327-0.947,1.98a1,1,0,0,1-1.086.65h-2.4c-0.863,0-1.727-.028-2.618-0.028-0.864,0-1.671.113-1.671,1.183,0,0.593.055,1.159,0.055,1.752V178c0,0.678-.083,1.441-0.083,2.091,0,0.621.39,0.621,1.476,0.621,1.2,0,1.5,0,1.5-.649v-0.453a0.649,0.649,0,0,1,.752-0.762h13.621a0.649,0.649,0,0,1,.752.762c0,0.17-.028.339-0.028,0.481,0,0.65.418,0.621,1.5,0.621,1.142,0,1.5,0,1.5-.621,0-.65-0.083-1.413-0.083-2.091v-6.045c0-.593.055-1.159,0.055-1.752,0-1.1-.835-1.183-1.7-1.183s-1.727.028-2.618,0.028h-5.376a0.406,0.406,0,0,1-.473-0.4,0.7,0.7,0,0,1,.055-0.255c0.307-.653.585-1.331,0.892-1.98a0.971,0.971,0,0,1,1.058-.706h2.34a0.511,0.511,0,0,1,.418.367c0.139,0.282.362,0.31,1.337,0.31,1.2,0,1.56.029,1.56-.621,0-.169-0.084-1.695-0.084-2.087v-4.467c0-.593.056-1.158,0.056-1.723,0-1.042-.752-1.156-1.588-1.156-0.78,0-1.532.029-2.284,0.029h-8.133c-0.78,0-1.532-.029-2.284-0.029-0.864,0-1.616.142-1.616,1.184,0,0.565.056,1.13,0.056,1.695v4.467c0,0.477-.056,1.8-0.056,2.087,0,0.65.334,0.621,1.532,0.621,0.947,0,1.226,0,1.365-.282a0.474,0.474,0,0,1,.418-0.4h2.312Zm-1.978-2.455a0.8,0.8,0,0,1-.78-0.791V159.61a0.8,0.8,0,0,1,.78-0.79h8.607a0.784,0.784,0,0,1,.78.79v2.857a0.785,0.785,0,0,1-.78.791h-8.607Zm-2.563,13.164a0.8,0.8,0,0,1-.78-0.791V172.3a0.743,0.743,0,0,1,.78-0.763H501.9a0.779,0.779,0,0,1,.78.763v3.336a0.8,0.8,0,0,1-.78.791H488.218Zm7.657-39.581a0.681,0.681,0,0,1,.755-0.791c0.672,0.029,1.2.057,1.644,0.057,0.947,0,1.306-.17,1.306-1.074,0-.424-0.028-0.873-0.028-1.3V130.6c0-.452.028-0.876,0.028-1.328a0.9,0.9,0,0,0-1.084-1.07c-0.612,0-1.25.056-1.866,0.028a0.661,0.661,0,0,1-.755-0.794v-0.622a0.807,0.807,0,0,1,.755-0.9c0.279-.028,2.229-0.423,2.312-0.423a0.769,0.769,0,0,1,.251.028,1.016,1.016,0,0,0,.415.113,0.271,0.271,0,0,0,.309-0.254,1.411,1.411,0,0,0-.448-0.76c-0.137-.17-0.248-0.339-0.36-0.48a2.325,2.325,0,0,0-.919-0.964,5.421,5.421,0,0,0-.557.141,26.69,26.69,0,0,1-6.88.794c-0.557,0-1.111,0-1.111.48a4.2,4.2,0,0,0,.306,1.156c0.248,0.593.359,0.763,0.861,0.763,0.418,0,1.448-.085,1.894-0.085a0.614,0.614,0,0,1,.727.706v0.311a0.661,0.661,0,0,1-.755.794c-0.643-.028-1.142-0.057-1.56-0.057-0.975,0-1.362.17-1.362,1.071,0,0.452.028,0.9,0.028,1.356v4.435c0,0.537-.028,1.074-0.028,1.611,0,0.621.3,0.621,1.056,0.621,1,0,1.058-.028,1.086-0.65,0-.508.137-0.593,0.78-0.565a0.66,0.66,0,0,1,.755.791v1.469a0.7,0.7,0,0,1-.727.848c-1.086.113-2.173,0.169-3.259,0.226-1.173.056-1.451,0.028-1.451,0.424a15.582,15.582,0,0,0,.334,1.807c0.2,0.848.281,1.131,0.476,1.131a0.425,0.425,0,0,0,.362-0.283,0.558,0.558,0,0,1,.418-0.395c2.786-.227,5.571-0.622,8.329-1.017h0.167a0.751,0.751,0,0,1,.78.621,3.006,3.006,0,0,1,.111.4c0.195,0.649.279,0.932,0.638,0.932,0.309,0,1.757-.226,1.757-0.791a19.333,19.333,0,0,0-.947-2.882c-0.671-1.78-.922-2.6-1.337-2.6-0.083,0-1.7.255-1.7,0.735a2.79,2.79,0,0,0,.192.621,0.675,0.675,0,0,1,.056.226,0.458,0.458,0,0,1-.443.452,3.3,3.3,0,0,0-.56.057,0.632,0.632,0,0,1-.755-0.735v-1.243Zm-2.894-6.243a0.648,0.648,0,0,1,.669.678v1.782a0.648,0.648,0,0,1-.669.678h-0.222a0.651,0.651,0,0,1-.672-0.678v-1.782a0.651,0.651,0,0,1,.672-0.678h0.222Zm2.73,0.678a0.648,0.648,0,0,1,.669-0.678h0.278a0.648,0.648,0,0,1,.671.678v1.782a0.648,0.648,0,0,1-.671.678H496.38a0.648,0.648,0,0,1-.669-0.678v-1.782Zm-7.5-8.277a0.678,0.678,0,0,1,.782-0.791h11.5a0.639,0.639,0,0,1,.752.734l-0.028,5.483c0,0.478-.028.958-0.028,1.439,0,3.59.223,8.39,1.337,11.808,0.362,1.158.836,2.232,2.229,2.232,1.643,0,2.311-1.526,2.7-2.91a14.418,14.418,0,0,0,.558-3.221c0-.762-1.173-1.1-1.507-1.1-0.446,0-.446.48-0.474,0.819-0.056.424-.251,2.489-0.808,2.489-0.25,0-.362-0.4-0.5-1.076a41.936,41.936,0,0,1-.724-9.351l0.086-5.961v-0.367c0-.706.056-1.441,0.056-2.175,0-1.325-.669-1.495-1.839-1.495-0.724,0-1.448.028-2.2,0.028H489.388c-0.835,0-1.671-.028-2.507-0.028-1.03,0-1.5.282-1.5,1.381,0,0.876.028,1.752,0.028,2.656V127.8c0,5.368-.167,9.433-3.092,14.094a1.179,1.179,0,0,0-.223.509c0,0.451,1.421,1.469,2.089,1.469a0.5,0.5,0,0,0,.39-0.17,17.912,17.912,0,0,0,1.307-2.2c2.281-4.323,2.337-8.927,2.337-13.7V123Zm2.37-22.657c0,0.113.028,0.255,0.028,0.4,0,0.056.055,1.215,0.055,1.243a0.185,0.185,0,0,1-.195.226,0.548,0.548,0,0,1-.334-0.17,6.682,6.682,0,0,0-1.42-.876,0.634,0.634,0,0,0-.613.565,0.846,0.846,0,0,0,.334.537,5.7,5.7,0,0,1,1.7,2.2,1.316,1.316,0,0,0,1.031,1.073c0.752,0,2.451-.678,2.451-2.062,0-.282-0.195-2.825-0.251-3.418-0.028-.4-0.083-1.526-0.083-1.865a0.955,0.955,0,0,1,.445-0.876,10.752,10.752,0,0,1,4.9-1.356c1.56,0,3.342.876,3.342,2.656,0,2.062-2.367,2.6-3.983,2.6a21.7,21.7,0,0,1-2.284-.254c-0.418,0-.5.367-0.5,0.734a5.551,5.551,0,0,0,.445,2.034,1.431,1.431,0,0,0,1.17.311h0.334c1.672,0,4.179-.282,5.6-1.271a4.991,4.991,0,0,0,2.228-4.21c0-3.39-2.98-5.339-6.072-5.339a12.872,12.872,0,0,0-4.624.932,2.612,2.612,0,0,1-.7.255c-0.362,0-.418-0.622-0.418-1.1v-0.4c0-1.3.056-1.5,1.087-1.695,2.117-.367,2.59-0.367,2.59-1.1,0-.494-0.083-2.331-0.724-2.331a1.531,1.531,0,0,0-.474.141c-0.278.085-1.559,0.481-1.754,0.481a0.492,0.492,0,0,1-.474-0.481c0-.113.028-0.282,0.028-0.4,0.028-.255.056-0.481,0.083-0.65a1.872,1.872,0,0,1,.53-1.554,0.778,0.778,0,0,0,.278-0.452,0.581,0.581,0,0,0-.557-0.367C493.232,84.4,491.366,84,490.948,84a0.356,0.356,0,0,0-.362.423c0,0.113.056,0.763,0.056,1.328,0,0.791-.028,1.582-0.056,2.373a1.156,1.156,0,0,1-.223.848,1.471,1.471,0,0,1-1.031.339c-0.863.113-1.838,0.169-2.7,0.2-0.53.028-.585,0.141-0.585,0.91,0,2.071.445,2.1,0.807,2.1,0.418,0,2.312-.342,2.842-0.455,0.055,0,.111-0.028.167-0.028a0.616,0.616,0,0,1,.612.652v0.283c0,0.424-.027.847-0.027,1.271V95.2c0,0.876-.112.9-1.17,1.554-1.532.961-3.008,1.978-4.568,2.882a0.863,0.863,0,0,0-.641.593c0,0.565,1.114,2.684,1.671,2.684a0.866,0.866,0,0,0,.418-0.226,35.252,35.252,0,0,1,4.123-3.136c0.278,0,.278.282,0.306,0.791m13.091-11.187a8.34,8.34,0,0,0-2.089-1.469,3.46,3.46,0,0,0-1.671,1.836,0.968,0.968,0,0,0,.5.678,39.9,39.9,0,0,1,3.7,3.164,1.113,1.113,0,0,0,.613.339,3.064,3.064,0,0,0,1.755-1.921,9.017,9.017,0,0,0-2.145-2.091c-0.223-.169-0.446-0.367-0.669-0.537"/>
</svg>
