<svg xmlns="http://www.w3.org/2000/svg" width="142" height="62" viewBox="0 0 142 62">
  <defs>
    <style>
      .cls-1 {
        fill: #fff;
        fill-rule: evenodd;
      }
    </style>
  </defs>
  <path id="jgmp_logo_foot.svg" class="cls-1" d="M593.651,16184.9v21.9l-0.028,2.4a18.493,18.493,0,0,1-.8,5.9,14.533,14.533,0,0,1-2.819,4.7c-2.559,2.9-4.738,4.4-6.535,4.4a3.4,3.4,0,0,1-1.062-.2l-1.525-.4-1.334-.4a1.178,1.178,0,0,1-.545-1.1,6.206,6.206,0,0,1,.136-1.2l0.654-3.4a0.772,0.772,0,0,1,.551-0.8,2.882,2.882,0,0,1,1.872,1.3l1.053,1.1a3.378,3.378,0,0,0,2.079,1.4c1.4,0,2.1-1.8,2.1-5.2l-0.055-2V16193c0-4.2-.05-7-0.149-8.3a8.545,8.545,0,0,0-.668-3.1,2.592,2.592,0,0,0-1.429-1.3,10.132,10.132,0,0,0-3.363-.6,0.776,0.776,0,0,1-.817-0.8,1.041,1.041,0,0,1,1.252-1c0.418,0,1.035.1,1.852,0.2q3.84,0.3,4.33.3c0.635,0,1.588-.1,2.859-0.2,2.614-.3,4.139-0.5,4.575-0.5,0.817,0,1.225.2,1.225,0.7a0.912,0.912,0,0,1-.816.8,3,3,0,0,0-2.043,1.6A11.362,11.362,0,0,0,593.651,16184.9Zm25.7-7.5a26.677,26.677,0,0,1,10.648,2.6,7.83,7.83,0,0,0,1.988.6,0.938,0.938,0,0,0,.68-0.3l0.3-.2a0.852,0.852,0,0,1,.653-0.3,0.761,0.761,0,0,1,.816.9l-0.027,1.9-0.109,3.7,0.082,2q0.054,0.75.163,1.5c0.018,0.3.027,0.4,0.027,0.5a0.671,0.671,0,0,1-.844.8c-0.381,0-.635-0.4-0.762-1.1a12.239,12.239,0,0,0-3.455-6.3,13.207,13.207,0,0,0-9.929-4.4,10.851,10.851,0,0,0-8.882,4.3c-2.221,2.9-3.332,6.8-3.332,11.6a23.055,23.055,0,0,0,3.436,12.9c2.29,3.5,5.111,5.3,8.461,5.3a12.558,12.558,0,0,0,3.8-.7,12.746,12.746,0,0,0,3.5-1.4,3.855,3.855,0,0,0,1.507-2.1,13.977,13.977,0,0,0,.422-4.1q0-3.3-1.171-4.5c-0.781-.8-2.243-1.3-4.384-1.4a0.742,0.742,0,0,1-.845-0.8c0-.5.328-0.7,0.982-0.7h0.955a54.779,54.779,0,0,0,6.056.3c2.327,0,4.037-.1,5.128-0.2a19.093,19.093,0,0,1,2.046-.2c0.654,0,.981.2,0.981,0.7a1,1,0,0,1-.98.9,2.735,2.735,0,0,0-2.178,1.6,12.674,12.674,0,0,0-.6,4.6c0,0.7.027,1.2,0.081,1.8q0.11,1.35.109,1.8a2.06,2.06,0,0,1-.34,1.3,3.677,3.677,0,0,1-1.375.7q-0.627.3-4.33,1.8a28.889,28.889,0,0,1-11.356,2.8,15.75,15.75,0,0,1-12.022-4.9c-3.114-3.3-4.67-7.6-4.67-12.8a20.776,20.776,0,0,1,5.392-14.6A17.162,17.162,0,0,1,619.346,16177.4Zm32,2.2,11.156,24.2c0.489,1.1.9,1.6,1.224,1.6a1.594,1.594,0,0,0,1-1.1l10.263-21.7a24.2,24.2,0,0,1,2.074-3.8,1.824,1.824,0,0,1,1.638-.8,6.2,6.2,0,0,1,1.2.1h1.639a14.491,14.491,0,0,0,2.756-.2h1.255c0.637,0,.956.2,0.956,0.7a0.622,0.622,0,0,1-.735.7,4.373,4.373,0,0,0-3.581,1.7q-1.022,1.5-1.022,5.1l0.028,1.8,0.653,16.8,0.028,1.1c0,2.5.439,4.3,1.32,5.5a5.783,5.783,0,0,0,4.344,2.1,0.812,0.812,0,0,1,.762.8c0,0.5-.619.8-1.855,0.8-0.364,0-.946-0.1-1.745-0.2q-3.328-.3-4.72-0.3c-1.909,0-3.5.1-4.773,0.2a18.218,18.218,0,0,1-2.455.3,0.6,0.6,0,0,1-.682-0.7,0.818,0.818,0,0,1,.79-0.7,3.958,3.958,0,0,0,2.192-1.4,5.033,5.033,0,0,0,.64-2.8c0-.6-0.01-1-0.027-1.3l-0.79-17.9c-0.019-.4-0.137-0.7-0.355-0.7q-0.409,0-1.119,1.5l-10.263,21.5-0.378.8c-0.523,1.1-.956,1.7-1.3,1.7-0.4,0-1.063-.9-2-2.9l-1.386-2.8-8.72-19.3-0.189-.4a0.422,0.422,0,0,0-.327-0.2c-0.29,0-.434.4-0.434,1.1l-0.027.9-0.354,13.6-0.028,1.1,0.245,2.5c0.509,2.7,1.934,4.3,4.276,4.9q1.226,0.3,1.225.9c0,0.5-.318.7-0.955,0.7a11.343,11.343,0,0,1-1.746-.1l-1.938-.3a12.31,12.31,0,0,0-2.129-.1,19.368,19.368,0,0,0-3.874.3,7.767,7.767,0,0,1-1.365.1,0.677,0.677,0,0,1-.846-0.7,0.75,0.75,0,0,1,.654-0.7,5.307,5.307,0,0,0,3.063-2.5,10.506,10.506,0,0,0,.967-5l0.735-17.7,0.082-1.8a7.345,7.345,0,0,0-1.593-5,5.3,5.3,0,0,0-4.371-1.9c-0.69,0-1.035-.2-1.035-0.7,0-.6.39-0.8,1.17-0.8H641.2l1.578,0.1h1.116a20.654,20.654,0,0,0,2.5-.1,19.908,19.908,0,0,1,2.395-.3A2.668,2.668,0,0,1,651.346,16179.6Zm49.393,4.4v20.5c0,3.4.227,5.6,0.681,6.7,0.545,1.3,1.806,2.1,3.786,2.3l1.17,0.1a0.693,0.693,0,0,1,.735.8c0,0.5-.345.7-1.034,0.7h-0.79a10.619,10.619,0,0,0-1.8-.1l-4.221-.2h-1.062c-1.289,0-3.05.2-5.283,0.4a15.354,15.354,0,0,1-1.715.2,0.72,0.72,0,0,1-.9-0.7,0.752,0.752,0,0,1,.681-0.8,3.88,3.88,0,0,0,2.791-1.9,15,15,0,0,0,.694-5.5v-20.8a7.182,7.182,0,0,0-1.184-4.5,5.99,5.99,0,0,0-3.99-1.7,0.945,0.945,0,0,1-1.007-.9c0-.5.39-0.8,1.171-0.8,0.2,0,.626.1,1.28,0.1,2,0.1,4.311.2,6.944,0.2a27.928,27.928,0,0,0,3.1-.1l3.023-.2c1.016,0,1.942-.1,2.777-0.1,5.138,0,8.886,1.1,11.247,3.2A9.37,9.37,0,0,1,721,16188a9.987,9.987,0,0,1-3.323,7.5,11.787,11.787,0,0,1-8.142,3.1,15.817,15.817,0,0,1-4.588-.6c-1.317-.3-1.974-0.8-1.974-1.3a0.639,0.639,0,0,1,.682-0.7,0.818,0.818,0,0,1,.436.1,9.952,9.952,0,0,0,2.894.4,7.216,7.216,0,0,0,7.506-7.5,9.56,9.56,0,0,0-2.442-6.7,8.283,8.283,0,0,0-6.289-2.5c-1.983,0-3.315.2-4,.8S700.739,16182.3,700.739,16184Zm-57.487,37.1c0-.6-0.042-0.7-0.359-0.7l-0.262-.1c-0.056,0-.056-0.2,0-0.2h2.147c0.055,0,.055.2,0,0.2l-0.18.1c-0.317,0-.359.1-0.359,0.7v2.5a4.025,4.025,0,0,1-.159,1.3,1.638,1.638,0,0,1-1.615,1.1c-0.194,0-.525,0-0.525-0.3a0.738,0.738,0,0,1,.18-0.4,1.625,1.625,0,0,1,.193-0.1,0.663,0.663,0,0,1,.352.2,0.711,0.711,0,0,0,.3.2,0.606,0.606,0,0,0,.221-0.6,11.7,11.7,0,0,0,.062-1.3v-2.6Zm3.666,2.5c0,0.7.041,0.7,0.359,0.8h0.193a0.294,0.294,0,0,1-.007.3,3.815,3.815,0,0,0-1.036-.1,3.886,3.886,0,0,0-1.049.1,0.293,0.293,0,0,1,0-.3h0.193c0.318-.1.359-0.1,0.359-0.8v-2.5c0-.6-0.041-0.7-0.359-0.7l-0.193-.1c-0.055,0-.055-0.2,0-0.2h2.092c0.055,0,.055.2,0,0.2l-0.193.1c-0.318,0-.359.1-0.359,0.7v2.5Zm5.461-.1c0,0.4,0,.8.013,1.1a0.48,0.48,0,0,1-.407.1c-0.007,0-.235-0.3-0.559-0.7l-1.6-2c-0.4-.5-0.628-0.7-0.753-0.9a1.62,1.62,0,0,0-.034.5v1.3a5.033,5.033,0,0,0,.1,1.3,0.493,0.493,0,0,0,.4.2h0.193a0.331,0.331,0,0,1,0,.3,3.235,3.235,0,0,0-.925-0.1,2.076,2.076,0,0,0-.773.1,0.324,0.324,0,0,1,0-.3h0.117a0.435,0.435,0,0,0,.38-0.2,5.128,5.128,0,0,0,.1-1.3v-1.7a1.627,1.627,0,0,0-.048-0.6,0.394,0.394,0,0,0-.394-0.2l-0.193-.1c-0.048,0-.041-0.2.028-0.2h1.532a7.482,7.482,0,0,0,1.14,1.6l0.58,0.6c0.3,0.4.5,0.6,0.663,0.8a1.13,1.13,0,0,0,.027-0.3v-1a4.632,4.632,0,0,0-.1-1.2,0.329,0.329,0,0,0-.4-0.2l-0.186-.1c-0.055,0-.042-0.2,0-0.2h1.7c0.042,0,.055.2,0,0.2l-0.124.1a0.3,0.3,0,0,0-.373.2,4.632,4.632,0,0,0-.1,1.2v1.7Zm5.412,0.4c0,0.2.014,0.4,0.145,0.4a0.209,0.209,0,0,1-.021.2,0.965,0.965,0,0,0-.483.1,4.484,4.484,0,0,1-1.222.1,3.265,3.265,0,0,1-1.36-.2,2.278,2.278,0,0,1-.145-4.1,2.946,2.946,0,0,1,1.615-.4,7.391,7.391,0,0,1,1.367.2c0.021,0.2.028,0.7,0.1,1.1-0.028,0-.214.1-0.263,0a1.252,1.252,0,0,0-1.3-1,1.723,1.723,0,0,0-1.63,2,2.139,2.139,0,0,0,.787,1.9,1.754,1.754,0,0,0,.946.2c0.394,0,.477,0,0.477-0.5v-0.4c0-.4-0.042-0.4-0.373-0.5h-0.3a0.226,0.226,0,0,1,0-.3c0.49,0,.828.1,1.167,0.1s0.669-.1.9-0.1a0.293,0.293,0,0,1,0,.3h-0.159c-0.207,0-.248.1-0.248,0.5v0.4Zm1.415-2.8c0-.6-0.042-0.7-0.353-0.7l-0.172-.1c-0.055,0-.062-0.2.014-0.2h2.016c0.055,0,.055.2,0,0.2l-0.166.1c-0.311,0-.352.1-0.352,0.7v1.6c0,0.8.09,1.7,1.139,1.7,0.884,0,1.153-.8,1.153-1.7v-0.9a4.632,4.632,0,0,0-.1-1.2,0.33,0.33,0,0,0-.4-0.2l-0.186-.1c-0.055,0-.042-0.2,0-0.2h1.7c0.042,0,.055.2,0,0.2l-0.124.1a0.3,0.3,0,0,0-.373.2,4.632,4.632,0,0,0-.1,1.2v0.8a2.269,2.269,0,0,1-.442,1.6,1.608,1.608,0,0,1-1.367.5,2.061,2.061,0,0,1-1.367-.3,1.946,1.946,0,0,1-.511-1.6v-1.7Zm4.763-.8c-0.055,0-.055-0.2.021-0.2h1.546a4.524,4.524,0,0,0,.546,1.5l0.455,0.9a2.694,2.694,0,0,0,.373.7,3.254,3.254,0,0,0,.387-0.7l0.352-.8a7.616,7.616,0,0,0,.635-1.6h1.533c0.076,0,.076.2,0.021,0.2l-0.2.1c-0.283,0-.421.1-0.421,0.5,0,1.4.014,2.1,0.055,3,0.014,0.3.042,0.5,0.311,0.5H669.8a0.266,0.266,0,0,1-.014.3,3.027,3.027,0,0,0-.953-0.1,3.615,3.615,0,0,0-1.021.1,0.227,0.227,0,0,1-.021-0.3H668c0.318-.1.318-0.1,0.318-0.6l-0.014-1.7v-0.8h-0.014c-0.511,1.1-1.063,2.2-1.519,3.4h-0.318c-0.269-.9-1.09-2.5-1.477-3.4h-0.014c-0.028.4-.041,0.7-0.048,1.1s-0.014,1.1-.014,1.5a0.408,0.408,0,0,0,.318.5h0.269a0.294,0.294,0,0,1-.014.3,3.229,3.229,0,0,0-1.6,0c-0.09-.1-0.09-0.3-0.027-0.3h0.124c0.352-.1.373-0.1,0.414-0.5s0.069-1,.111-1.6c0.027-.5.048-1,0.048-1.4s-0.152-.5-0.428-0.5Zm7.67,2.8c-0.166,0-.187,0-0.228.1l-0.256.8a1.168,1.168,0,0,0-.048.3,0.74,0.74,0,0,1,.248.1h0.208a0.294,0.294,0,0,1-.014.3,2.119,2.119,0,0,0-.808-0.1c-0.234,0-.393.1-0.711,0.1a0.267,0.267,0,0,1-.021-0.3H670.2a0.478,0.478,0,0,0,.421-0.4c0.117-.2.241-0.6,0.428-1l0.621-1.7a2.48,2.48,0,0,0,.269-0.9,1.684,1.684,0,0,0,.6-0.4c0.09,0,.131,0,0.159.1,0.055,0.2.138,0.5,0.311,1l0.939,2.7a0.741,0.741,0,0,0,.462.6h0.263a0.3,0.3,0,0,1-.007.3,3.741,3.741,0,0,0-1.063-.1,2.884,2.884,0,0,0-.933.1,0.226,0.226,0,0,1-.013-0.3h0.221a0.172,0.172,0,0,0,.186-0.1,1.584,1.584,0,0,0-.131-0.5l-0.187-.6c-0.034-.1-0.089-0.1-0.331-0.1h-0.773Zm0.738-.4c0.159,0,.194,0,0.138-0.2l-0.179-.5a5.051,5.051,0,0,0-.249-0.7,4.233,4.233,0,0,0-.282.7l-0.173.5c-0.062.2-.028,0.2,0.145,0.2h0.6Zm4.053-.8c0,0.2.007,0.2,0.193,0.2H677.1c0.358,0,.441,0,0.511-0.4l0.034-.1a0.146,0.146,0,0,1,.255,0c-0.013.2-.02,0.4-0.02,0.7,0,0.2.007,0.5,0.02,0.7a0.146,0.146,0,0,1-.255,0l-0.034-.2c-0.07-.3-0.153-0.3-0.511-0.3h-0.477c-0.186,0-.193,0-0.193.2v0.8a1.034,1.034,0,0,0,.11.6c0.09,0.2.221,0.2,0.725,0.2a1.03,1.03,0,0,0,1.215-.8c0.056-.1.228,0,0.256,0.1a4.732,4.732,0,0,1-.29,1.1,7.539,7.539,0,0,0-1.6-.1h-0.9a5.566,5.566,0,0,0-1.187.1,0.279,0.279,0,0,1,0-.3h0.324c0.311-.1.353-0.1,0.353-0.8v-2.5c0-.6-0.042-0.7-0.353-0.7l-0.172-.1c-0.062,0-.056-0.2.014-0.2h3.383c0.007,0.1.055,0.6,0.089,1.1h-0.255a1.508,1.508,0,0,0-.262-0.6,1.073,1.073,0,0,0-.677-0.2h-0.552c-0.228,0-.228,0-0.228.3v1.2Zm5.108-.7c0-.7-0.014-0.7-0.3-0.8H681.02c-0.062,0-.062-0.2.014-0.2a7.807,7.807,0,0,1,1.6-.1,3.682,3.682,0,0,1,1.263.2,1.155,1.155,0,0,1,.843,1.2,1.32,1.32,0,0,1-1.5,1.2h-0.221c-0.056,0-.069-0.1-0.021-0.1a0.992,0.992,0,0,0,.69-1.1,0.981,0.981,0,0,0-.884-1.1c-0.255,0-.269.1-0.269,0.4v2.8c0,0.7.042,0.7,0.353,0.8h0.22a0.226,0.226,0,0,1,0,.3,3.984,3.984,0,0,0-1.056-.1,3.794,3.794,0,0,0-1.036.1,0.226,0.226,0,0,1-.013-0.3h0.193c0.311-.1.352-0.1,0.352-0.8v-2.4Zm4.322,0c0-.7-0.014-0.7-0.3-0.8h-0.187c-0.069,0-.069-0.2.014-0.2a9.088,9.088,0,0,1,1.713-.1,4.171,4.171,0,0,1,1.353.2,1.261,1.261,0,0,1,.607,1.1,1.125,1.125,0,0,1-.732,1c-0.069,0-.069.1-0.034,0.1a4.787,4.787,0,0,0,1.07,1.7,0.557,0.557,0,0,0,.463.2c0.062,0.1.062,0.2,0.027,0.2a0.885,0.885,0,0,1-.545.1,1.592,1.592,0,0,1-1.34-.7,8.982,8.982,0,0,1-.538-1.1,0.306,0.306,0,0,0-.366-0.2c-0.242,0-.255,0-0.255.1v0.8c0,0.7.041,0.7,0.352,0.8h0.186a0.313,0.313,0,0,1,0,.3,3.619,3.619,0,0,0-1.015-.1,3.5,3.5,0,0,0-1.008.1,0.279,0.279,0,0,1,0-.3h0.186c0.311-.1.353-0.1,0.353-0.8v-2.4Zm0.946,0.9c0,0.2.02,0.3,0.428,0.3a0.794,0.794,0,0,0,.524-0.2,1.374,1.374,0,0,0,.249-0.8,0.9,0.9,0,0,0-.9-1c-0.284,0-.3,0-0.3.4v1.3Zm8.187,0.3a2.263,2.263,0,0,1-2.492,2.3,2.235,2.235,0,0,1-2.4-2.3,2.4,2.4,0,0,1,2.465-2.4A2.309,2.309,0,0,1,694.993,16222.4Zm-2.478-2.1c-0.849,0-1.3.8-1.3,1.9,0,0.9.3,2.2,1.422,2.2,0.9,0,1.257-.9,1.257-2S693.371,16220.3,692.515,16220.3Zm3.714,0.9c0-.6-0.014-0.8-0.332-0.8h-0.131c-0.069,0-.069-0.2.014-0.2a10.572,10.572,0,0,1,1.85-.1,7.962,7.962,0,0,1,1.609.2,2.124,2.124,0,0,1,1.4,2,2.285,2.285,0,0,1-1.235,2.1,4.415,4.415,0,0,1-1.747.3c-0.324,0-.67-0.1-0.919-0.1a4.167,4.167,0,0,0-1.077.1,0.279,0.279,0,0,1,0-.3h0.215c0.31-.1.352-0.1,0.352-0.8v-2.4Zm0.987,2.2a1.4,1.4,0,0,0,.138.8,0.926,0.926,0,0,0,.573.2,2.024,2.024,0,0,0-.3-4,0.353,0.353,0,0,0-.359.1,1.007,1.007,0,0,0-.048.4v2.5Zm4.625-2.3c0-.6-0.041-0.7-0.352-0.7l-0.173-.1c-0.055,0-.062-0.2.014-0.2h2.016c0.056,0,.056.2,0,0.2l-0.165.1c-0.311,0-.353.1-0.353,0.7v1.6c0,0.8.09,1.7,1.14,1.7,0.883,0,1.153-.8,1.153-1.7v-0.9a4.622,4.622,0,0,0-.1-1.2,0.328,0.328,0,0,0-.4-0.2l-0.187-.1c-0.055,0-.041-0.2,0-0.2h1.7c0.041,0,.055.2,0,0.2l-0.125.1a0.3,0.3,0,0,0-.372.2,4.622,4.622,0,0,0-.1,1.2v0.8a2.264,2.264,0,0,1-.442,1.6,1.605,1.605,0,0,1-1.367.5,2.062,2.062,0,0,1-1.367-.3,1.95,1.95,0,0,1-.511-1.6v-1.7Zm8.975-.9a9.9,9.9,0,0,0,.083,1.1c-0.028,0-.214.1-0.262,0a1.308,1.308,0,0,0-1.3-1,1.78,1.78,0,0,0-1.587,2c0,1.4.794,2.1,1.622,2.1a1.531,1.531,0,0,0,1.409-1,0.152,0.152,0,0,1,.262,0,3.564,3.564,0,0,1-.262,1.1,5.455,5.455,0,0,1-1.4.2,2.916,2.916,0,0,1-1.857-.5,2.119,2.119,0,0,1-.877-1.8,2.292,2.292,0,0,1,.835-1.8,3.061,3.061,0,0,1,1.913-.6A9.289,9.289,0,0,1,710.816,16220.2Zm2.257,1.7c0,0.2.007,0.2,0.194,0.2h0.476c0.359,0,.442,0,0.511-0.4l0.035-.1a0.146,0.146,0,0,1,.255,0c-0.014.2-.021,0.4-0.021,0.7,0,0.2.007,0.5,0.021,0.7a0.146,0.146,0,0,1-.255,0l-0.035-.2c-0.069-.3-0.152-0.3-0.511-0.3h-0.476c-0.187,0-.194,0-0.194.2v0.8a1.024,1.024,0,0,0,.111.6c0.09,0.2.221,0.2,0.725,0.2a1.03,1.03,0,0,0,1.215-.8c0.055-.1.228,0,0.256,0.1a4.732,4.732,0,0,1-.29,1.1,7.544,7.544,0,0,0-1.6-.1h-0.9a5.561,5.561,0,0,0-1.187.1,0.275,0.275,0,0,1,0-.3h0.324c0.311-.1.352-0.1,0.352-0.8v-2.5c0-.6-0.041-0.7-0.352-0.7l-0.173-.1c-0.062,0-.055-0.2.014-0.2h3.383c0.007,0.1.056,0.6,0.09,1.1h-0.255a1.492,1.492,0,0,0-.263-0.6,1.067,1.067,0,0,0-.676-0.2H713.3c-0.228,0-.228,0-0.228.3v1.2Zm-97.557-56.1a0.5,0.5,0,0,1-.092.5,0.828,0.828,0,0,0-.279.5,5.167,5.167,0,0,1-.678,1.3,6.31,6.31,0,0,1-1.227,1.5,4.091,4.091,0,0,1-1.31.9c-0.455.2-.761,0.4-1.059,0.5h-0.306c-0.028-.1.028-0.1,0.13-0.2a1.791,1.791,0,0,0,.539-0.3,3.828,3.828,0,0,0,1.273-.8,5.767,5.767,0,0,0,1.216-1.3,13.851,13.851,0,0,0,.66-1.3,7.557,7.557,0,0,0,.26-0.8c0.047-.2.074-0.3,0.009-0.3a0.338,0.338,0,0,0-.436,0,4.387,4.387,0,0,0-1.115.1,4.978,4.978,0,0,1-1.133.2,0.91,0.91,0,0,1-.744-0.1,0.434,0.434,0,0,1-.2-0.5,0.373,0.373,0,0,1,.326,0,3.144,3.144,0,0,0,.529.1h1c0.428-.1,1.013-0.1,1.282-0.2a0.853,0.853,0,0,0,.539-0.1,0.34,0.34,0,0,1,.427,0A0.6,0.6,0,0,1,615.516,16165.8Zm1.18,0a0.314,0.314,0,0,1-.427-0.1,0.131,0.131,0,0,1,.13-0.2,0.445,0.445,0,0,0,.232-0.3,0.286,0.286,0,0,0-.427-0.3c-0.251,0-.3.3-0.177,0.5,0.047,0.1.075,0.3,0.01,0.3a0.257,0.257,0,0,1-.27-0.2,0.645,0.645,0,0,1,.623-1,0.636,0.636,0,0,1,.669.9A0.564,0.564,0,0,1,616.7,16165.8Zm8.008,0.4a0.289,0.289,0,0,1-.056.4,0.809,0.809,0,0,0-.2.3c-0.038.1-.121,0.5-0.224,1-0.074.4-.2,1.1-0.259,1.4a0.157,0.157,0,0,1,.175.1c0.205,0.1.242,0.3,0.187,0.3a0.689,0.689,0,0,1-.623.2,7.954,7.954,0,0,0-1.607-.1,3.985,3.985,0,0,0-1.152.1,1.148,1.148,0,0,1,0,.2,0.374,0.374,0,0,1-.288.4c-0.167,0-.158-0.1-0.186-0.5s-0.065-.8-0.093-1.3c-0.027-.6-0.092-1.3-0.12-1.7a0.571,0.571,0,0,0-.316-0.5,0.315,0.315,0,0,1-.214-0.3,0.264,0.264,0,0,1,.3-0.2,1.062,1.062,0,0,1,.584.2,1.317,1.317,0,0,1,.242.4c0.251,0,.651-0.1.985-0.1a12.114,12.114,0,0,1,1.468-.2,0.863,0.863,0,0,0,.52-0.2,0.651,0.651,0,0,1,.427-0.2A1.91,1.91,0,0,1,624.7,16166.2Zm-1.347,3.1h0.3c0.074-.9.139-1.4,0.167-1.8,0.019-.2.037-0.5,0.037-0.6a0.187,0.187,0,0,0-.177-0.2,5.778,5.778,0,0,0-1.17.1c-0.4,0-.789.1-1.078,0.1a1.36,1.36,0,0,0-.613.1s0,0.1.01,0.2c0.027,0.3.065,1.1,0.083,1.6,0.01,0.2.019,0.5,0.019,0.7a4.034,4.034,0,0,0,1.049-.1C622.428,16169.4,623.078,16169.3,623.357,16169.3Zm10.794-2.3a0.643,0.643,0,0,1-.436,0c-0.2,0-.512-0.1-0.8-0.1-0.232,0-.78.1-1.2,0.1a3.015,3.015,0,0,1,.4.3,0.379,0.379,0,0,1,.084.4,0.264,0.264,0,0,0-.122.2,4.457,4.457,0,0,1-.158.9,2.559,2.559,0,0,1-.53,1.1,2.719,2.719,0,0,1-.826.9c-0.306.2-.687,0.4-1.04,0.6a4.9,4.9,0,0,1-.855.2h-0.223c-0.01-.1.037-0.1,0.139-0.1a3.211,3.211,0,0,1,.456-0.1c0.306-.2.548-0.3,0.882-0.5a4.412,4.412,0,0,0,.975-1.1,6.358,6.358,0,0,0,.511-1.1,9.109,9.109,0,0,0,.122-1.1,1.149,1.149,0,0,0-.168-0.6,4.132,4.132,0,0,1-1.022.1,1.954,1.954,0,0,1-.743.1,0.89,0.89,0,0,1-.586-0.2,0.306,0.306,0,0,1-.055-0.4c0.1-.1.232,0,0.446,0.1,0.2,0,.446.1,0.836,0.1,0.408,0,.7-0.1,1.059-0.1s0.873-.1,1.226-0.1a3.012,3.012,0,0,1,.882-0.1,0.956,0.956,0,0,1,.614.1C634.2,16166.8,634.254,16167,634.151,16167Zm-4.422-1.2a0.319,0.319,0,0,1-.139-0.4,0.349,0.349,0,0,1,.315,0c0.1,0,.251.1,0.4,0.1,0.3,0,.669-0.1.8-0.1a2.347,2.347,0,0,0,.789-0.2c0.224,0,.418-0.1.632-0.1a1.391,1.391,0,0,1,.474.3c0.074,0.2-.074.3-0.363,0.3a2.292,2.292,0,0,0-.826,0h-0.856a2.384,2.384,0,0,1-.714.2A0.793,0.793,0,0,1,629.729,16165.8Zm4.115-.3a2.429,2.429,0,0,0-.538-0.4c-0.075-.1-0.121-0.1-0.075-0.2h0.158a1.009,1.009,0,0,1,.5.1,0.732,0.732,0,0,1,.557.4c0.092,0.1,0,.2-0.13.3A0.972,0.972,0,0,1,633.844,16165.5Zm0.743-.4c-0.139-.1-0.306-0.2-0.585-0.4-0.074,0-.111-0.1-0.074-0.1a0.135,0.135,0,0,1,.158-0.1c0.139,0,.316.1,0.5,0.1a1.237,1.237,0,0,1,.576.4,0.185,0.185,0,0,1-.111.3A0.487,0.487,0,0,1,634.587,16165.1Zm8.686,5.3a0.814,0.814,0,0,1-.511,0h-1.031c-0.428,0-1.041.1-1.6,0.1h-1.124c-0.279,0-.632.1-0.892,0.1a0.912,0.912,0,0,1-.594-0.2,0.357,0.357,0,0,1-.084-0.4,0.447,0.447,0,0,1,.307.1c0.139,0,.251.1,0.464,0.1h1.078a4.36,4.36,0,0,0,1.18-.1h0.613c0.046-.2.111-0.7,0.148-1s0.1-.7.1-0.8a0.208,0.208,0,0,0-.185-0.2,1.027,1.027,0,0,0-.465.1,2.3,2.3,0,0,0-.818.1H639.1a0.56,0.56,0,0,1-.567-0.1,0.349,0.349,0,0,1-.167-0.4h0.241a3.257,3.257,0,0,0,.455.1h0.818c0.316,0,.762-0.1.957-0.1a1.181,1.181,0,0,0,.353-0.1,0.354,0.354,0,0,1,.205-0.2,0.522,0.522,0,0,1,.334.1,2.814,2.814,0,0,1,.427.3c0.093,0.1.084,0.2,0.028,0.2a2.2,2.2,0,0,1-.214.2c-0.083,0-.148,0-0.167.1s-0.055.2-.121,0.5c-0.064.2-.195,0.7-0.3,1.2h0.075c0.213,0,.594-0.1.845-0.1a0.65,0.65,0,0,1,.724.1C643.245,16170.2,643.347,16170.3,643.273,16170.4Zm9.318-2a0.217,0.217,0,0,1-.344.1c-0.186,0-.716-0.1-1.05-0.1h-1.412a7.591,7.591,0,0,0-1.45.1c-0.343,0-.742.1-1.068,0.1a1.867,1.867,0,0,1-.835-0.2c-0.187-.2-0.261-0.4-0.158-0.5a0.819,0.819,0,0,1,.659.1,3.01,3.01,0,0,0,1.012.1c0.382,0,1.171-.1,1.57-0.1h1.849a2.573,2.573,0,0,1,.957.1A0.281,0.281,0,0,1,652.591,16168.4Zm2.442,2.6a0.289,0.289,0,0,1,.195-0.1,8.469,8.469,0,0,1,.957-0.5,5.827,5.827,0,0,0,.976-0.8,6.836,6.836,0,0,0,.938-0.9,9.584,9.584,0,0,0,.91-1.3,2.664,2.664,0,0,0,.465-0.9c0.056-.2-0.084-0.3-0.353-0.2a2.947,2.947,0,0,1-.613.2c-0.326,0-.548.1-0.846,0.1a1.562,1.562,0,0,1-.752-0.2c-0.223-.2-0.27-0.4-0.167-0.5a0.482,0.482,0,0,1,.371-0.1,0.794,0.794,0,0,0,.455.2,2.161,2.161,0,0,0,1.134,0c0.427-.1.715-0.2,0.835-0.2a0.432,0.432,0,0,1,.484-0.1,0.832,0.832,0,0,1,.083,1.3,1.956,1.956,0,0,0-.5.5c-0.186.2-.437,0.6-0.781,1a4.586,4.586,0,0,1,1.013.4,3.085,3.085,0,0,1,.846.8c0.185,0.2.353,0.7,0.083,0.8a0.54,0.54,0,0,1-.706-0.3,3.967,3.967,0,0,0-.557-0.9,3.137,3.137,0,0,0-.818-0.7,0.167,0.167,0,0,1-.019.1,8.385,8.385,0,0,1-1.161,1.1,5.583,5.583,0,0,1-1.123.8,4.751,4.751,0,0,1-1.07.5C655.163,16171.1,655.052,16171.1,655.033,16171Zm-72.5-3.5a6.907,6.907,0,0,1,1.041.6,0.835,0.835,0,0,1,.352.6,0.232,0.232,0,0,1-.269.2,0.261,0.261,0,0,1-.279-0.2,2.448,2.448,0,0,0-.845-0.9v3.7h-0.465v-3.6a13.148,13.148,0,0,1-1.2,1.2l-0.139-.2a11.059,11.059,0,0,0,2.276-3.1h-2.081l-0.084-.2h1.226v-1.6a0.892,0.892,0,0,1,.809.2,0.469,0.469,0,0,1-.344.3v1.1h0.455l0.316-.4a5.324,5.324,0,0,1,.5.5c0,0.1-.027.1-0.083,0.1l-0.214.1a11.316,11.316,0,0,1-.975,1.5v0.1Zm3.205-1.9v-1.6a0.927,0.927,0,0,1,.836.2,0.451,0.451,0,0,1-.344.3v1.1H587.4l0.3-.4a1.485,1.485,0,0,1,.511.5,0.156,0.156,0,0,1-.065.1l-0.214.2v3.6h-0.464v-0.5H586.23v2.4h-0.492v-2.4h-1.115v0.5h-0.474v-4.3a2.646,2.646,0,0,1,.549.3h1.04Zm-1.115.2v1.4h1.115v-1.4h-1.115Zm1.115,1.6h-1.115v1.5h1.115v-1.5Zm1.728-.2v-1.4H586.23v1.4h1.236Zm0,1.7v-1.5H586.23v1.5h1.236Zm6.084-3.7v-1.2a0.89,0.89,0,0,1,.818.2c0,0.1-.112.1-0.344,0.2v0.8h2.592l0.334-.4a2.23,2.23,0,0,1,.586.7,0.152,0.152,0,0,1-.1.1l-0.278.1a3.889,3.889,0,0,1-.7.6l-0.158-.1a3.1,3.1,0,0,0,.353-0.8h-5.518v0.1a2.436,2.436,0,0,1-.251,1.1,0.471,0.471,0,0,1-.381.3,0.278,0.278,0,0,1-.325-0.3,0.416,0.416,0,0,1,.186-0.3,2.031,2.031,0,0,0,.492-1.4H591.1a2.438,2.438,0,0,0,.028.3h2.424Zm1.821,1.1,0.306-.3a0.916,0.916,0,0,1,.484.5,0.145,0.145,0,0,0-.075.1l-0.176.1v1.6h-0.465v-0.3h-1.374a4.37,4.37,0,0,1-.632,1h2.406l0.306-.3a0.971,0.971,0,0,1,.521.5,0.164,0.164,0,0,0-.084.1l-0.195.1v2.1h-0.474v-0.5h-4.264v0.5h-0.473v-2.7a1.565,1.565,0,0,1,.575.2h1.422a7.229,7.229,0,0,0,.241-1h-1.3v0.4h-0.456v-2.3c0.186,0.1.372,0.1,0.548,0.2h3.159Zm-3.716,2.9v1.6h4.264v-1.6h-4.264Zm0.465-2.7v1.3h3.325v-1.3H592.12Zm11.379-1a0.164,0.164,0,0,1,.047-0.1,8.606,8.606,0,0,0,.529-1.4,0.981,0.981,0,0,1,.789.5,0.651,0.651,0,0,1-.38.1,8.487,8.487,0,0,1-.687.9h2l0.436-.6c0.195,0.2.4,0.4,0.585,0.6l-0.083.2h-7.4l-0.084-.2H603.5Zm-1.412,1.1,0.307-.4a6.272,6.272,0,0,1,.52.5c0,0.1-.019.1-0.075,0.1l-0.2.1v3.8a0.686,0.686,0,0,1-.78.7,0.441,0.441,0,0,0-.26-0.4,4.053,4.053,0,0,0-.576-0.1v-0.2H601.9a0.256,0.256,0,0,0,.279-0.3v-1.1h-1.654v2.2h-0.473v-5.2a1.277,1.277,0,0,1,.576.3h1.458Zm0.093,1.2v-1h-1.654v1h1.654Zm0,0.2h-1.654v1.1h1.654v-1.1Zm-1.031-3.9a1.266,1.266,0,0,1,1.142,1,0.285,0.285,0,0,1-.334.3,0.3,0.3,0,0,1-.269-0.3,1.847,1.847,0,0,0-.651-0.9Zm2.61,5.7v-3.2a0.851,0.851,0,0,1,.8.2c0,0.1-.1.1-0.334,0.2v2.8h-0.465Zm0.214,0.8a5.121,5.121,0,0,0,1.189.1,0.262,0.262,0,0,0,.288-0.3v-4.2a1.461,1.461,0,0,1,.808.2,0.448,0.448,0,0,1-.325.3v4a0.728,0.728,0,0,1-.855.7,0.412,0.412,0,0,0-.26-0.4c-0.111,0-.4-0.1-0.845-0.2v-0.2Z" transform="translate(-579 -16164)"/>
</svg>
